<svg id="Layer_1" data-name="Layer 1" xmlns="http://www.w3.org/2000/svg" width="267.6" height="644.12" viewBox="0 0 267.6 644.12">
  <defs>
    <style>
      .cls-1 {
        fill: #c3c3c3;
      }

      .cls-2 {
        fill: #2e2e2e;
      }

      .cls-3 {
        fill: #fefefe;
      }

      .cls-4 {
        fill: #010101;
      }

      .cls-5 {
        fill: #020202;
      }

      .cls-6 {
        fill: #fafafa;
      }

      .cls-7 {
        fill: #fcfcfc;
      }

      .cls-8 {
        fill: #fdfdfd;
      }

      .cls-9 {
        fill: #fbfbfb;
      }
    </style>
  </defs>
  <title>Ona Logo Vertical</title>
  <g id="Bar">
    <path class="cls-1" d="M267.55,513.78c-.51,2.88-2.36,3.4-5,3.31-25.71-.82-51.44-.2-77.15-.66-15.06-.27-30.12-.47-45.17-.18-17.22.33-34.44.35-51.66.2-7.24-.06-14.48-.57-21.73-.36-15.51.46-31-1-46.51-.41-4.63.18-9.24.6-13.88.47-3.81-.11-4.78-1-5.05-4.74-.12-1.61-.36-3.22-.44-4.83a2.76,2.76,0,0,1,2.5-3.1,31,31,0,0,1,3.21-.34c7.57-.58,15.12.93,22.66.37,9.89-.73,19.76-.15,29.62.15,13,.39,25.93.59,38.89,1,8.65.26,17.3.05,25.94.37,19,.71,38,.32,57,.35,7.58,0,15.07-1.08,22.58-2a54.43,54.43,0,0,1,6.71-.28c9.89,0,19.79-.21,29.66.15,8.11.3,16.21.26,24.31.34a5.31,5.31,0,0,1,3.56,1.41Z"/>
    <path class="cls-1" d="M187.78,643.64c-12.74-.58-25.49-.73-38.22-.37-19.93.56-39.85.31-59.78.26-7.25,0-14.52-.71-21.76-.33-13.44.7-26.83-.9-40.26-.55-6.25.16-12.49.4-18.73.81a20.63,20.63,0,0,1-5-.52,2.9,2.9,0,0,1-2.39-2.55c-.31-2.13-.51-4.29-.66-6.44s.82-3.15,2.92-3.38a68.59,68.59,0,0,1,16.86-.06c4.81.67,9.56.19,14.31-.09,8.43-.48,16.81.4,25.21.43.69,0,1.38.16,2.07.18,10.42.19,20.85.16,31.26.62,9.89.44,19.77.08,29.65.44,20.47.75,40.94.39,61.4.24,6.37,0,12.74-1.24,19.11-1.89,1.46-.15,2.92-.27,4.38-.29,18.46-.29,36.91.66,55.37.47a6.11,6.11,0,0,1,4.06,1.4c0,3.63,0,7.27,0,10.9,0,1-.19,1.21-1.19,1.19-3.79-.08-7.57,0-11.36,0-4-.53-8-.1-11.95-.22-1.61,0-3.23,0-4.85,0h-36C197.42,643.72,192.6,644.1,187.78,643.64Z"/>
  </g>
  <g id="Ona">
    <path class="cls-2" d="M115,.46l12.79,6.27c-2.8.75-5,1.48-7.25,1.93-14.06,2.81-23.35,11.51-29.76,23.87a66.58,66.58,0,0,0-7.52,35c.93,16.78,4.3,32.83,12.66,47.59,5.55,9.8,12.7,18.09,23.76,21.61,20.36,6.47,51.88,1.88,63-31,4.41-13,5.55-26.36,5.16-39.94-.31-10.75-2.1-21.19-7.2-30.81-8-15.13-19.86-20.56-35.74-19.68-4.51.25-8,2.73-10.7,6.19-4.1,5.18-6.55,11.34-9.93,17-1.07,1.78-2.07,3.62-3,5.45-.53,1-.84,1.31-2,.43-4.83-3.69-5.61-8.56-4.49-14.1a25.18,25.18,0,0,1,7.44-13.6C131.25,8.15,142,3.27,154.47,3c14.95-.35,26.43,6.45,35,18.3C198.73,34,203.93,48.4,205.92,64c1.6,12.55,1.54,25-2.67,37.07-8.72,25-26.48,40.42-51.75,47.2a71.57,71.57,0,0,1-40.45-.51c-16.27-5.08-27.4-16.19-35.33-30.86-6.67-12.33-10.13-25.6-11.3-39.52-.63-7.47-1.14-14.95.31-22.38,2.07-10.57,7-19.86,13-28.67,5.09-7.51,10.67-14.57,18.1-20C99.71,3.54,104.1,2,108.51.46Z"/>
    <path class="cls-2" d="M77.67,450.68c-1.52-.28-2.79.48-4.17.52-4.09.11-6.13-1.33-7.16-5.22s-1-3.72,2.57-5.23A24.71,24.71,0,0,1,80,439a2.74,2.74,0,0,0,3.12-2c12.17-28.75,24.32-57.52,36.15-86.42.88-2.16,1.15-4-.07-6.08a9.47,9.47,0,0,1,.09-10.28,70.85,70.85,0,0,0,3.64-7.74,2.31,2.31,0,0,1,2.48-1.54c4.85,0,7.19,1.57,8.61,6.3,4.91,16.38,12.23,31.79,19.3,47.28,6.31,13.83,11,28.28,16.79,42.32,2.66,6.49,5.45,12.93,8.66,19.18.82,1.6,1.7,1.88,3.25,1.26a58.17,58.17,0,0,0,19-12.18c2.5-2.41,2.48-2.43,4.44.53,3,4.58,2.57,9-1.38,12.93-3.15,3.1-7.07,4.92-11.06,6.62-2.55,1.09-5.08,2.26-7.69,3.18-1.59.56-1.74,1.27-1.14,2.71,2.46,5.87,4.16,11.92,4.11,18.38,0,1.78-.24,2.6-2.24,1.81-4-1.56-8.08-.92-12.14-.47-1.86.21-2.53-.4-2.85-2.22a51.58,51.58,0,0,0-5-15.32,3.83,3.83,0,0,0-3.36-2.32c-9.61-.78-19.22-1.62-28.84-2.42-6.15-.51-12.3-1-18.46-1.46-6-.41-10.19,2.39-12.38,8-.68,1.74-.7,4.42-2.34,4.85-1,.25-2.67-2.21-4-3.46-2.16-2-4.36-3.94-6.43-6-1.12-1.13-1.56-1-2.18.44-2.68,6.24-5.6,12.37-8.11,18.67C79,476,77.63,476.29,75.54,476c-2.56-.35-4.29-2-6-3.71-.77-.8-.13-1.46.13-2.1,2.49-6.06,5-12.11,7.52-18.16C77.4,451.62,77.51,451.17,77.67,450.68Z"/>
    <path class="cls-2" d="M111.36,208.16c-.32,5.21.28,9.89.58,14.58.37,5.93,1,11.85,1,17.79,0,18.86,0,37.71,0,56.57a44.75,44.75,0,0,1-.81,8.51,14.69,14.69,0,0,1-5,8.39c-.61.54-1,.71-1.74.14a10.51,10.51,0,0,1-4.41-7.54,59.59,59.59,0,0,1,.11-10.4c.46-6.81-.15-13.57-.71-20.33-.21-2.57.1-5.08.09-7.62q0-49.62,0-99.23c0-3.12,0-3.14,3.1-3.12,1.93,0,4.17-.54,5.71.24,1.72.88,1,3.49,1.56,5.29,2.37,7.59,7,13.68,12.46,19.26,8.51,8.76,17.92,16.56,26.74,25,.09.09.26.08.43.13.54-.49.31-1.15.32-1.72q.19-15.18.33-30.35a97.33,97.33,0,0,1,1-11.76c.41-3.11,2-5.61,4-8,.56-.68.93-.77,1.63-.11,3.18,3,5.06,6.38,5,11q-.24,30.11-.16,60.22c.06,19,.89,37.95,1.88,56.9.34,6.44-1.06,12.57-2.21,18.78-.17.9-.69,1.12-1.46,1.12-2.63,0-5.26,0-7.88,0-1.35,0-1.46-.76-1.45-1.8.07-7.73,0-15.46.23-23.18.4-12.21.51-24.41-1.15-36.52a28,28,0,0,0-9.17-17.27C131.82,224.59,121.3,217.09,111.36,208.16Z"/>
    <path class="cls-3" d="M126.8,363.92c3.14,7,6.14,13.62,9,20.24C144,403,151,422.24,158.56,441.29c.63,1.59.46,2.12-1.38,2.18-7.66.28-15.25-.52-22.84-1.36-6.82-.75-13.62-1.74-20.44-2.46-5.1-.54-9.45,1.79-13.72,4.16a4.07,4.07,0,0,1-5.8-1.24c-.64-.91,0-1.65.29-2.38,4.8-11.78,9.54-23.57,14.47-35.3,5.4-12.86,11-25.66,16.47-38.48C125.9,365.72,126.25,365.06,126.8,363.92Z"/>
  </g>
  <g id="Restaurant">
    <path d="M.46,568.5c4-1.52,4.26-1.83,4.25-6q0-16.57-.07-33.15c0-3.54.49-4,4-4,9,0,15.74,6.28,17.39,15.46,2.08,11.58-5,20.6-13.08,24.82-1.07.56-2.93.86-2.87,2s1.91,1.5,3.06,2a211.51,211.51,0,0,0,23,9.15c4.52,1.44,8.5.82,12-2.48.3-.29.54-.56,1-.38a1.15,1.15,0,0,1,.61,1.36,3.69,3.69,0,0,1-2.56,2.75,16.29,16.29,0,0,1-11,1.2c-7-1.82-13.35-5.2-20-7.91-1.5-.61-3-1.21-4.44-2-1.59-.84-2.08-.18-2.07,1.31,0,2.16.17,4.32.07,6.47-.05,1.06,0,2.45-1.59,2.69s-2.84.1-2.8-2.08c0-2.54-.27-5.09-.21-7.64,0-1.91-.22-3.07-2.53-2.35a7.75,7.75,0,0,1-2.06.08Z"/>
    <path d="M176.61,569.6c-4,1.28-6.29-.31-8.31-3.5a99.08,99.08,0,0,0-7.27-9.28c-.54-.67-1.07-1.82-2.15-1.39s-.51,1.51-.5,2.3c0,3.47.11,6.94.28,10.4.07,1.37-.24,2.14-1.75,1.76-1.13-.28-3.15,1.11-3-1.69a237.08,237.08,0,0,0,0-27.51c-.08-1.37.23-2,1.76-1.76,3.23.47,6.47-.16,9.7,0,5.94.25,9.26,3.64,8.32,8.6-.69,3.66-3.24,5.76-6.62,6.7-2.18.6-1.81,1.27-.7,2.62C169.84,561,173.2,565.32,176.61,569.6Z"/>
    <path d="M214.24,547c0,7.14-.21,14.08.3,21,.14,1.91-.59,1.86-2,2-1.88.14-1.53-.92-1.44-2a271.41,271.41,0,0,0,.76-27.53c0-.65-.38-1.56.3-1.9.9-.46,1.33.55,1.82,1.07q9.65,10.31,19.26,20.66c.44.48.75,1.18,1.8,1.22-.06-6.49.15-12.94-.24-19.39,0-.54-.08-1.08-.07-1.62,0-.74-.45-1.85,1.13-1.45.92.24,2.32-.66,2.15,1.51-.74,9.24-.66,18.51-.52,27.77,0,.71.44,1.73-.45,2.08s-1.29-.66-1.76-1.21c-6.16-7.13-12.69-13.91-19.11-20.8A3.49,3.49,0,0,0,214.24,547Z"/>
    <path class="cls-4" d="M148.71,539c-.28,7-.34,14-.92,21-.51,6.11-4.62,9.75-10.8,10.43a21,21,0,0,1-6.22-.25c-5.72-1.08-8.68-4.86-8.68-11.61,0-6.09.44-12.18-.05-18.27-.08-1,.09-1.68,1.36-1.34a2.8,2.8,0,0,0,1.38,0c1.9-.5,1.95.54,1.84,2-.4,5.31-.47,10.64-.41,16a18.76,18.76,0,0,0,.75,5.25c1.17,3.85,3.79,5.73,8.15,5.87,4.92.15,7.83-1.48,9.2-5.38,1.79-5.08,1.13-10.38,1.2-15.61a62.26,62.26,0,0,0-.26-6.47c-.12-1.37.09-2,1.64-1.62A7.62,7.62,0,0,0,148.71,539Z"/>
    <path class="cls-4" d="M120.1,569.83c-4.89.14-4.88.14-6.55-4.06a27.08,27.08,0,0,1-1.62-4.08c-.64-3-2.48-3.65-5.28-3.68-7.12-.07-7.12-.18-9.57,6.45a11.88,11.88,0,0,0-.93,2.61c-.32,2.79-1.93,3.31-4.33,2.72-.34-.76.25-1.32.51-1.91q6.16-13.84,12.39-27.65c.32-.71.29-1.83,1.45-1.82s1,1.07,1.29,1.71q6.17,14.34,12.27,28.71C119.84,569.1,119.93,569.38,120.1,569.83Z"/>
    <path class="cls-4" d="M179,569.69a18.19,18.19,0,0,1,1.75-4.21q5.66-12.8,11.38-25.57c.26-.58.28-1.44,1.21-1.52s1,.64,1.19,1.18c4.16,10,8.32,20,13,30.35-1.69,0-3.1,0-4.51,0-1,0-1-.87-1.19-1.45q-1.77-4.4-3.45-8.83a1.89,1.89,0,0,0-2-1.46c-2.62-.06-5.24-.08-7.86,0a2.31,2.31,0,0,0-2.47,1.84,72.11,72.11,0,0,0-2.58,7.17C182.85,569.84,181.47,570.46,179,569.69Z"/>
    <path class="cls-4" d="M31.89,554.71a129.34,129.34,0,0,0-.31-13.87c-.12-1.53.27-2.08,1.84-2a79.31,79.31,0,0,0,12.7,0c1.57-.13,1.67.61,1.74,1.89.09,1.66-1,1.23-1.79,1.2-2.77-.12-5.54-.26-8.31-.45-1.17-.08-1.65.29-1.62,1.54.06,2.62,0,5.25-.07,7.87,0,1.22.42,1.65,1.61,1.59,2.46-.13,4.93-.13,7.4-.29,1.2-.08,1.8,0,1.81,1.52,0,1.65-.89,1.41-1.92,1.37C42.5,555,40,555,37.56,555c-1.08,0-1.51.33-1.49,1.45q.08,4.86,0,9.72c0,1.1.36,1.48,1.46,1.46a69.4,69.4,0,0,0,9-.4c.85-.13,1.65-.34,1.57,1.14C48,569.42,48,570,46.68,570q-6.83-.1-13.65,0c-1.29,0-1.53-.46-1.45-1.64C31.87,563.73,32.05,559.11,31.89,554.71Z"/>
    <path class="cls-4" d="M58.77,570.62a14.87,14.87,0,0,1-4.63-.71c-3.14-1.24-3.47-1.92-2.41-5.12.11-.35.07-.8.57-.89s.66.33.84.64A7.39,7.39,0,0,0,58,568.19a6.09,6.09,0,0,0,7.36-3.64c1.18-3.13.24-5.61-2.95-7.3-1.9-1-4-1.71-5.87-2.71-3.74-1.95-5.18-4.71-4.7-8.69.45-3.69,2.65-6.15,6.58-7.12a11.72,11.72,0,0,1,8.55.77c1.25.66,1.37,4.2.13,4.86-.85.46-1-.44-1.24-.93a5.13,5.13,0,0,0-5.75-2.88,5,5,0,0,0-4.22,3.78,4.84,4.84,0,0,0,1.54,5.23A14.26,14.26,0,0,0,61.82,552c.64.26,1.3.48,1.94.75,4.74,2,6.31,4.53,5.83,9.27a9.55,9.55,0,0,1-7.91,8.25C60.62,570.49,59.53,570.53,58.77,570.62Z"/>
    <path class="cls-5" d="M85.35,556.14c0,4.08-.08,8.17,0,12.25,0,1.53-.65,1.82-1.77,1.47s-3,1.32-3-1.44c.13-7.94.13-15.89.28-23.83,0-2.19-.47-3.35-2.95-2.94-1.67.27-3.38.24-5.07.38-.93.08-1.67.14-1.52-1.23.11-1-.23-2,1.42-1.93,4.77.13,9.55.15,14.32.17,2,0,4,0,6-.16,1.61-.11,1.37.88,1.47,1.91.12,1.31-.55,1.33-1.52,1.26-2-.16-4-.21-6-.38-1.34-.11-1.94.24-1.91,1.75.09,4.24,0,8.48,0,12.72Z"/>
    <path class="cls-4" d="M256.58,556.21c0,3.93,0,7.86,0,11.79,0,1.25,0,2.27-1.62,1.88-1.18-.28-3.37,1.2-3.13-1.77.65-8,.3-16,.37-24,0-1.93-.52-2.64-2.45-2.42s-3.84.28-5.76.38c-.7,0-1.71.38-1.33-1,.22-.83-.8-2.21,1.27-2.14,5,.16,10,.16,15,.18,1.85,0,3.7,0,5.54-.17,2-.17,1.1,1.31,1.3,2.16.36,1.45-.72,1-1.37,1-2.08-.08-4.16-.17-6.23-.36-1.44-.13-1.84.42-1.82,1.83.08,4.24,0,8.48,0,12.72Z"/>
    <path class="cls-3" d="M9.66,546.13c0-5.41.05-10.81,0-16.22,0-1.78.54-2.3,2.3-2.07,3.85.49,6.75,2.37,8.28,5.88,4.82,11.06,3.12,22.51-7.6,29.9-.8.55-1.66,1.61-2.62,1.09s-.47-1.7-.48-2.61c0-5.33,0-10.65,0-16Z"/>
    <path class="cls-3" d="M158.59,547c0-1.39.07-2.78,0-4.16s.28-1.86,1.62-1.79,2.62-.06,3.92,0a5.4,5.4,0,0,1,5.12,3.94,6,6,0,0,1-2.74,6.8c-2.14,1.3-4.51,1.38-6.93,1.32-1.09,0-1.22-.7-1.21-1.55,0-1.54,0-3.08,0-4.62Z"/>
    <path class="cls-6" d="M105.08,545.21c1.47,3.36,2.7,6.25,4,9.11.41.92.43,1.44-.79,1.42-2,0-4,0-6,0-1.11,0-1.69-.29-1.07-1.62C102.5,551.33,103.66,548.48,105.08,545.21Z"/>
    <path class="cls-7" d="M192.35,545.19c1.51,3.44,2.76,6.31,4,9.18.34.77.43,1.38-.69,1.36a44,44,0,0,1-7.69-.27Z"/>
  </g>
  <g id="_Lounge" data-name="&amp; Lounge">
    <path class="cls-4" d="M86.64,600.75c0-8.24,5.44-13.3,14.16-13.24,8.44.06,13.76,5.27,13.74,13.47s-5.5,13.3-14.21,13.18S86.6,609.06,86.64,600.75Z"/>
    <path class="cls-4" d="M63.26,599.79c1.48.91,2,1.89.68,3.45s-3.3,3.37-3.29,5.06c0,1.52,2.34,3,3.63,4.54.08.09.05.28.1.62-2.21,0-4.55.92-6-1.81-.59-1.12-1.27-.28-1.84.19A10.39,10.39,0,0,1,48.08,614a6.1,6.1,0,0,1-4.58-9.37,8.55,8.55,0,0,1,3.7-3.72c1.74-.81,1.67-1.62.73-3.07-1.49-2.32-1.7-4.82.06-7.13a5.78,5.78,0,0,1,6.22-2.08c3.28.71,4.54,3.57,3,6.57a5.74,5.74,0,0,1-2.07,2.45c-2.17,1.21-1.93,2.43-.41,4a32.25,32.25,0,0,1,2.88,3.62c.94,1.31,1.72,1.63,2.59-.06.49-1,1.15-1.83,1.69-2.76S62.79,600.68,63.26,599.79Z"/>
    <path class="cls-4" d="M164.3,606.75c0-3.82,0-7.27,0-10.72,0-2.24,0-4.48-.17-6.71-.09-1.35.63-1.16,1.54-1.23,1.12-.09,1.33.31,1.24,1.28-.7,7.71-.48,15.43-.45,23.15,0,.5.27,1.21-.38,1.43s-1-.48-1.44-.92l-16-17.41c-.25-.27-.55-.51-1.27-1.17,0,4.26,0,8.06,0,11.86,0,1.93,0,3.87.16,5.79.1,1.35-.55,1.44-1.64,1.48-1.33,0-1.32-.67-1.23-1.6a226,226,0,0,0,.55-22.68c0-.55-.38-1.36.33-1.66s1.19.51,1.64,1l15.64,16.78C163.19,605.81,163.61,606.12,164.3,606.75Z"/>
    <path class="cls-4" d="M72,620.13c1.81-.32,2.26-1.52,2.13-3.15-.69-8.85.2-17.71,0-26.57-.1-4.16.09-8.34,0-12.5,0-1.83,1-1.88,2.31-2,1.66-.18,1.67.74,1.68,1.94,0,7.64.46,15.29.1,22.91-.25,5.32-.13,10.63-.38,15.94-.09,1.91.55,2.76,2.45,2.6,4-.34,8.19.92,12.06-1.15a1,1,0,0,1,1.44.28c.26.52-.14,1-.56,1.4a4.54,4.54,0,0,1-3,1.07c-5.54,0-11.1-.52-16.63.3C73,621.28,72.49,620.83,72,620.13Z"/>
    <path class="cls-4" d="M193.48,593.19c-3.45-3.45-7.31-4.63-11.81-3.37a10.26,10.26,0,0,0-1.31.46c-4.47,1.94-6.7,7.54-5.49,13.75a9.62,9.62,0,0,0,9.57,8.13c6.38.17,6.77-.22,6.59-6.55,0-.54-.05-1.08-.07-1.62-.06-2.19.89-2.86,3-2.22.59.17.63.51.62,1-.05,2.78-.11,5.56-.08,8.34a1.61,1.61,0,0,1-1.39,1.8c-4.15,1-8.34,1.68-12.6.83-6.07-1.21-9.59-5.3-9.94-11.4-.41-7.17,2.54-12,8.57-13.94a20.3,20.3,0,0,1,12.31,0C194.9,589.42,194.89,589.45,193.48,593.19Z"/>
    <path class="cls-4" d="M122,596.84c0,2.7-.16,5.42,0,8.1.35,4.68,2.94,7.06,7.46,7.14s7.17-2.24,7.8-6.83c.68-5,.35-10,.26-15,0-.85-1-2.25,1.37-2.19,2.08.06,1.47,1,1.42,2.1-.18,4.24-.43,8.48-.51,12.72-.19,9.39-8.38,14.33-16.88,10.14a7.72,7.72,0,0,1-4.21-5.75,17.08,17.08,0,0,1-.39-5.3,57.24,57.24,0,0,0-.05-12c-.26-2.55,1.43-1.61,2.61-1.84,1.88-.35,1.3.91,1.27,1.8-.09,2.31-.21,4.63-.31,6.94Z"/>
    <path class="cls-4" d="M199.77,600.65a87.77,87.77,0,0,0-.3-10.63c-.18-1.61.31-2.11,2-2,3.3.17,6.62.07,9.93,0,.95,0,1.58-.06,1.55,1.24s-.61,1.45-1.73,1.33c-2.07-.21-4.15-.23-6.23-.38-1.14-.08-1.56.29-1.71,1.51-.94,7.59-1,7.56,6.7,7.34.72,0,2-.8,2.08.9.06,1,0,1.61-1.27,1.51-2-.16-4-.07-6-.22-1.25-.09-1.64.38-1.62,1.56.05,2.39.07,4.78,0,7.17,0,1.37.58,1.74,1.82,1.65,2.3-.17,4.61-.25,6.92-.39.71,0,1.41-.24,1.24.95-.11.74.19,1.46-1.12,1.42q-5.67-.16-11.34,0c-1.67,0-1.26-1.06-1.19-1.85C199.81,608,199.79,604.35,199.77,600.65Z"/>
    <path class="cls-3" d="M110.45,600.56A18.63,18.63,0,0,1,110,605c-1.22,4.72-4.54,7.41-9.31,7.47a9.2,9.2,0,0,1-9.51-7.21,16.85,16.85,0,0,1-.07-8.48c1.26-5.15,5.07-7.78,10.48-7.4,4.74.33,8.11,3.78,8.73,9C110.42,599.17,110.42,600,110.45,600.56Z"/>
    <path class="cls-8" d="M51.33,612.08a5.16,5.16,0,0,1-5.19-4.35,6.44,6.44,0,0,1,3.25-6.16c.69-.29,1,0,1.32.47,1.74,2.25,3.47,4.52,5.27,6.72.6.73.45,1.15-.2,1.67A7.06,7.06,0,0,1,51.33,612.08Z"/>
    <path class="cls-9" d="M55.41,592.84c0,1.75-2.06,5-3.2,5-.82,0-2.34-3.05-2.34-4.72,0-1.84,1.27-3.32,2.9-3.21A2.65,2.65,0,0,1,55.41,592.84Z"/>
  </g>
</svg>
