<?xml version="1.0" encoding="utf-8"?>
<!-- Generator: Adobe Illustrator 22.1.0, SVG Export Plug-In . SVG Version: 6.00 Build 0)  -->
<svg version="1.1" id="Layer_1" xmlns="http://www.w3.org/2000/svg" xmlns:xlink="http://www.w3.org/1999/xlink" x="0px" y="0px"
	 viewBox="0 0 112.8 64.4" style="enable-background:new 0 0 112.8 64.4;" xml:space="preserve">
<image style="display:none;overflow:visible;" width="137" height="68" xlink:href="logo-tyee.png"  transform="matrix(1.904157e-02 0 0 1.904157e-02 124.1832 91.5533)">
</image>
<path d="M103.1,24.1c2.6,0,5.2,0,7.8,0c1.2,0,1.3,0.3,0.7,1.4c-1,2-3,2-4.8,2.1c-2.5,0.2-5,0.1-7.5,0.2c-1.3,0-2.6,0.1-3.9,0.3
	c-0.3,0-0.7,0.5-0.7,0.7c0.2,2.4,0.3,4.9,0.8,7.2c0.1,0.7,1.4,1.4,2.3,1.6c2.4,0.5,4.9,0.8,7.3,1c2.1,0.2,4.3,0.2,6.4,0.3
	c0.5,0,0.9,0.3,1.3,0.5c-0.2,0.5-0.4,1.2-0.7,1.3c-1.7,0.8-3.4,1.7-5.3,2.1c-3.8,0.9-7.6,1.1-11.5,0.2c-3.6-0.9-5.2-2.9-5.2-6.5
	c0-3.4,0.2-6.7,0.4-10.1c0.1-2.9,0.4-5.8,0.6-8.7c0.1-1.1,0.1-2.2,0.4-3.2c0.2-0.9-0.2-1.2-1-1.2c-0.4,0-0.7,0-1.1,0
	c-1.8,0-2.3-0.5-2.6-2.2c-0.1-0.4-0.1-0.8-0.2-1.2c-0.1-0.9,0.2-1.4,1.1-1.4c5.4,0.1,10.8,0.1,16.2,0.2c1.9,0,3.8,0.1,5.7,0.2
	c0.4,0,0.8,0.3,1.3,0.5c-0.3,0.6-0.4,1.6-0.9,1.8c-1.6,0.6-3.4,1.2-5.1,1.4c-3.1,0.4-6.2,0.5-9.3,0.7c-0.8,0-1,0.5-1,1.1
	c-0.2,2.9-0.3,5.8-0.4,8.7c0,0.8,0.5,0.9,1.1,0.9C97.9,24.2,100.5,24.2,103.1,24.1C103.1,24.1,103.1,24.1,103.1,24.1z"/>
<path d="M84,24.4c-0.5,1.7-1.5,2.6-3,2.8c-2.2,0.3-4.3,0.6-6.5,0.8c-2.4,0.2-4.8,0.2-7.2,0.2c-0.9,0-1.3,0.3-1.1,1.2
	c0.4,2.3,0.7,4.6,1.1,6.9c0.2,1.3,1.2,1.9,2.4,2c3.9,0.4,7.8,0.7,11.6,1c1,0.1,2.1,0.2,3.1,0.2c0.1,0.1,0.2,0.2,0.3,0.3
	c-0.5,0.5-0.9,1.1-1.4,1.4c-2.3,1.3-4.7,2-7.3,2.3c-2.9,0.4-5.8,0.2-8.7-0.4c-2.9-0.6-4.9-2.3-5.2-6c-0.4-4.8,0-9.6,0.3-14.3
	c0.2-2.8,0.4-5.6,0.5-8.3c0-0.2-0.4-0.6-0.6-0.7c-0.6-0.2-1.3-0.2-1.9-0.3c-1.4-0.4-1.9-1-1.8-2.5c0.1-1.4,0.6-2.1,2.1-2.1
	c3.2-0.1,6.4-0.1,9.6-0.1c2,0,4.1,0.2,6.1,0.3c1.9,0.1,3.7,0.2,5.6,0.3c1,0.1,1.4,0.7,0.7,1.5c-0.8,0.7-1.8,1.6-2.7,1.7
	c-4.2,0.5-8.4,0.9-12.6,1.1c-1,0.1-1.4,0.4-1.5,1.4c-0.1,2.3-0.2,4.6-0.2,6.9c0,1.9,0.2,2.1,2.1,2.1c4.1,0,8.2,0,12.4,0
	C81.3,24.2,82.5,24.3,84,24.4z"/>
<path d="M46.6,29.8c3.5-10.1,6.9-20,10.3-29.8c1.2,0.1,1.7,0.7,1.7,1.7c-0.1,1.2-0.1,2.5-0.4,3.6c-1.5,5.2-3.2,10.3-4.8,15.5
	c-1.7,5.4-3.3,10.8-5,16.2c-1.3,4.3-2.6,8.6-3.9,12.9c-1.3,4.3-2.7,8.6-4.1,12.9c-0.6,1.8-1.9,2.2-3.3,1c-2-1.8-2.3-3.3-1-6.6
	c1.5-3.9,3-7.9,4.5-11.8c1-2.6,2-5.1,2.9-7.7c0.2-0.6,0.2-1.5-0.1-2.1c-2.8-5.7-5.8-11.3-8.6-17c-0.3-0.7-0.5-1.5-0.5-2.3
	c0-0.4,0.5-1.1,0.9-1.2c0.4-0.1,1.1,0.3,1.3,0.7c1.3,1.8,2.6,3.6,3.8,5.4c1.8,2.7,3.6,5.3,5.4,8C45.9,29.3,46.1,29.4,46.6,29.8z"/>
<path d="M15.6,7.4C25.9,7.7,34.3,8,42.7,8.2c0.9,0,1.1,0.4,1,1.2c-0.3,1.2-0.8,1.9-2.1,2c-5.1,0.3-10.2,0.7-15.3,1
	c-2.5,0.1-4.9,0.2-7.4,0.2c-0.7,0-0.9,0.3-0.9,1c0.2,5.4,0.4,10.8,0.5,16.2c0,5.9-0.1,11.8-0.2,17.7c0,1.4-0.8,1.7-2,1.1
	c-3-1.3-2.9-1.3-2.9-4.5c0.1-5,0.1-10.1,0.2-15.1c0.1-4.9,0.3-9.7,0.4-14.6c0-1.5,0-1.6-1.5-1.5C10,13,7.5,13.2,5,13.2
	c-2.3,0-4.5-1.8-4.9-4c-0.2-0.9,0-1.6,1.1-1.7c0.6,0,1.1-0.2,1.7-0.2C7.7,7.4,12.6,7.4,15.6,7.4z"/>
</svg>
