<svg id="Layer_1" data-name="Layer 1" xmlns="http://www.w3.org/2000/svg" width="157.58" height="165.56" viewBox="0 0 157.58 165.56">
  <title>o-logo</title>
  <path d="M2.22,54.47c2.83-18,15.44-32,28.49-44.57a41.9,41.9,0,0,1,9.81-6.84c8.62-4.49,16.86-4.31,25,2.32-1.71.54-3.15,1.13-4.64,1.45-13.71,3-23.56,11.1-30.79,22.84C19.55,46.83,17.42,65.46,20,85c2,15,5.93,29.33,13.43,42.58,10.3,18.17,25.08,28.34,46.7,27.49,22.38-.88,40-9.82,49.28-30.64,11.64-26.06,13-53.32,4.07-80.44C127.7,26.3,115.45,15.32,95.84,13.92c-10.4-.74-17.69,3.4-22.65,12.25-3,5.37-5.91,10.8-8.94,16.16-.79,1.41-1.23,3.13-2.81,4-4.21-2.63-5.32-6.49-4.91-11.17a27.19,27.19,0,0,1,9.2-18.31C85.07-.66,118.24-6,138.5,23.21c17.84,25.69,23.39,54.37,15.71,84.72s-36.35,53.54-67.85,56.93a90.32,90.32,0,0,1-26.87-.63c-17.24-3.3-30.66-12.41-40.69-26.68C9.62,124.5,4.31,109.92,1.73,94.26-.15,82.83-1.15,75.83,2.22,54.47Z"/>
</svg>
