<?xml version="1.0" encoding="UTF-8" standalone="no"?>
<svg
   xmlns:dc="http://purl.org/dc/elements/1.1/"
   xmlns:cc="http://creativecommons.org/ns#"
   xmlns:rdf="http://www.w3.org/1999/02/22-rdf-syntax-ns#"
   xmlns:svg="http://www.w3.org/2000/svg"
   xmlns="http://www.w3.org/2000/svg"
   xmlns:sodipodi="http://sodipodi.sourceforge.net/DTD/sodipodi-0.dtd"
   xmlns:inkscape="http://www.inkscape.org/namespaces/inkscape"
   id="Layer_1"
   data-name="Layer 1"
   width="266.66232"
   height="516.63934"
   viewBox="0 0 266.66232 516.63935"
   version="1.1"
   sodipodi:docname="Ona only Logo Vertical.svg"
   inkscape:version="0.92.3 (2405546, 2018-03-11)">
  <metadata
     id="metadata75">
    <rdf:RDF>
      <cc:Work
         rdf:about="">
        <dc:format>image/svg+xml</dc:format>
        <dc:type
           rdf:resource="http://purl.org/dc/dcmitype/StillImage" />
        <dc:title>Ona Logo Vertical</dc:title>
      </cc:Work>
    </rdf:RDF>
  </metadata>
  <sodipodi:namedview
     pagecolor="#ffffff"
     bordercolor="#666666"
     borderopacity="1"
     objecttolerance="10"
     gridtolerance="10"
     guidetolerance="10"
     inkscape:pageopacity="0"
     inkscape:pageshadow="2"
     inkscape:window-width="1517"
     inkscape:window-height="790"
     id="namedview73"
     showgrid="false"
     inkscape:zoom="0.92374092"
     inkscape:cx="132.86232"
     inkscape:cy="281.64372"
     inkscape:window-x="0"
     inkscape:window-y="32"
     inkscape:window-maximized="0"
     inkscape:current-layer="Layer_1"
     fit-margin-top="0"
     fit-margin-left="0"
     fit-margin-right="0"
     fit-margin-bottom="0" />
  <defs
     id="defs4">
    <style
       id="style2">
      .cls-1 {
        fill: #c3c3c3;
      }

      .cls-2 {
        fill: #2e2e2e;
      }

      .cls-3 {
        fill: #fefefe;
      }

      .cls-4 {
        fill: #010101;
      }

      .cls-5 {
        fill: #020202;
      }

      .cls-6 {
        fill: #fafafa;
      }

      .cls-7 {
        fill: #fcfcfc;
      }

      .cls-8 {
        fill: #fdfdfd;
      }

      .cls-9 {
        fill: #fbfbfb;
      }
    </style>
  </defs>
  <title
     id="title6">Ona Logo Vertical</title>
  <path
     style="fill:#c3c3c3"
     inkscape:connector-curvature="0"
     id="path8"
     d="m 266.61231,513.32 c -0.51,2.88 -2.36,3.4 -5,3.31 -25.71,-0.82 -51.44,-0.2 -77.15,-0.66 -15.06,-0.27 -30.12,-0.47 -45.17,-0.18 -17.22,0.33 -34.44,0.35 -51.659996,0.2 -7.24,-0.06 -14.48,-0.57 -21.73,-0.36 -15.51,0.46 -31,-1 -46.51,-0.41 -4.63,0.18 -9.24,0.6 -13.8799996,0.47 -3.81,-0.11 -4.78,-1 -5.05,-4.74 -0.12,-1.61 -0.36,-3.22 -0.44,-4.83 a 2.76,2.76 0 0 1 2.5,-3.1 31,31 0 0 1 3.21,-0.34 c 7.5699996,-0.58 15.1199996,0.93 22.6599996,0.37 9.89,-0.73 19.76,-0.15 29.62,0.15 13,0.39 25.93,0.59 38.89,1 8.649996,0.26 17.299996,0.05 25.939996,0.37 19,0.71 38,0.32 57,0.35 7.58,0 15.07,-1.08 22.58,-2 a 54.43,54.43 0 0 1 6.71,-0.28 c 9.89,0 19.79,-0.21 29.66,0.15 8.11,0.3 16.21,0.26 24.31,0.34 a 5.31,5.31 0 0 1 3.56,1.41 z"
     class="cls-1" />
  <path
     style="fill:#2e2e2e"
     inkscape:connector-curvature="0"
     id="path13"
     d="m 114.06231,0 12.79,6.27 c -2.8,0.75 -5,1.48 -7.25,1.93 -14.06,2.81 -23.349996,11.51 -29.759996,23.87 a 66.58,66.58 0 0 0 -7.52,35 c 0.93,16.78 4.3,32.83 12.66,47.59 5.549996,9.8 12.699996,18.09 23.759996,21.61 20.36,6.47 51.88,1.88 63,-31 4.41,-13 5.55,-26.36 5.16,-39.94 -0.31,-10.75 -2.1,-21.19 -7.2,-30.81 -8,-15.13 -19.86,-20.56 -35.74,-19.68 -4.51,0.25 -8,2.73 -10.7,6.19 -4.1,5.18 -6.55,11.34 -9.93,17 -1.07,1.78 -2.07,3.62 -3,5.45 -0.53,1 -0.84,1.31 -2,0.43 -4.83,-3.69 -5.61,-8.56 -4.49,-14.1 a 25.18,25.18 0 0 1 7.44,-13.6 c 9.03,-8.52 19.78,-13.4 32.25,-13.67 14.95,-0.35 26.43,6.45 35,18.3 9.26,12.7 14.46,27.1 16.45,42.7 1.6,12.55 1.54,25 -2.67,37.07 -8.72,25 -26.48,40.42 -51.75,47.2 a 71.57,71.57 0 0 1 -40.45,-0.51 c -16.269996,-5.08 -27.399996,-16.19 -35.329996,-30.86 -6.67,-12.33 -10.13,-25.6 -11.3,-39.52 -0.63,-7.47 -1.14,-14.95 0.31,-22.38 2.07,-10.57 7,-19.86 13,-28.67 5.09,-7.51 10.67,-14.57 18.1,-20 3.88,-2.79 8.269996,-4.33 12.679996,-5.87 z"
     class="cls-2" />
  <path
     style="fill:#2e2e2e"
     d="M 124.08594 324.46289 A 2.31 2.31 0 0 0 121.99219 326.01953 A 70.85 70.85 0 0 1 118.35156 333.75977 A 9.47 9.47 0 0 0 118.26172 344.03906 C 119.48172 346.11906 119.21203 347.95914 118.33203 350.11914 C 106.50203 379.01914 94.351641 407.78906 82.181641 436.53906 A 2.74 2.74 0 0 1 79.0625 438.53906 A 24.71 24.71 0 0 0 67.972656 440.28906 C 64.402656 441.79906 64.372344 441.62953 65.402344 445.51953 C 66.432344 449.40953 68.4725 450.85023 72.5625 450.74023 C 73.9425 450.70023 75.212422 449.9407 76.732422 450.2207 C 76.572422 450.7107 76.461953 451.16031 76.251953 451.57031 C 73.731953 457.62031 71.222422 463.67047 68.732422 469.73047 C 68.472422 470.37047 67.831563 471.03008 68.601562 471.83008 C 70.311562 473.54008 72.041562 475.18906 74.601562 475.53906 C 76.691562 475.82906 78.063203 475.53984 79.033203 473.08984 C 81.543203 466.78984 84.462578 460.65992 87.142578 454.41992 C 87.762578 452.97992 88.202266 452.85047 89.322266 453.98047 C 91.392266 456.04047 93.591953 457.98047 95.751953 459.98047 C 97.081953 461.23047 98.751953 463.68945 99.751953 463.43945 C 101.39195 463.00945 101.4118 460.32984 102.0918 458.58984 C 104.2818 452.97984 108.47266 450.17984 114.47266 450.58984 C 120.63266 451.04984 126.78164 451.54078 132.93164 452.05078 C 142.55164 452.85078 152.16148 453.6907 161.77148 454.4707 A 3.83 3.83 0 0 1 165.13281 456.78906 A 51.58 51.58 0 0 1 170.13281 472.10938 C 170.45281 473.92938 171.12242 474.54008 172.98242 474.33008 C 177.04242 473.88008 181.12305 473.24078 185.12305 474.80078 C 187.12305 475.59078 187.36328 474.77023 187.36328 472.99023 C 187.41328 466.53023 185.71195 460.47938 183.25195 454.60938 C 182.65195 453.16938 182.80258 452.46039 184.39258 451.90039 C 187.00258 450.98039 189.53203 449.8107 192.08203 448.7207 C 196.07203 447.0207 199.99258 445.19961 203.14258 442.09961 C 207.09258 438.16961 207.52148 433.74992 204.52148 429.16992 C 202.56148 426.20992 202.58203 426.23062 200.08203 428.64062 A 58.17 58.17 0 0 1 181.08203 440.82031 C 179.53203 441.44031 178.65203 441.16055 177.83203 439.56055 C 174.62203 433.31055 171.83187 426.87086 169.17188 420.38086 C 163.38188 406.34086 158.69281 391.89055 152.38281 378.06055 C 145.31281 362.57055 137.99203 347.1593 133.08203 330.7793 C 131.66203 326.0493 129.32266 324.48047 124.47266 324.48047 A 2.31 2.31 0 0 0 124.08594 324.46289 z M 125.86328 363.46094 C 129.00328 370.46094 132.00328 377.07922 134.86328 383.69922 C 143.06328 402.53922 150.06305 421.78008 157.62305 440.83008 C 158.25305 442.42008 158.08219 442.94977 156.24219 443.00977 C 148.58219 443.28977 140.99234 442.49039 133.40234 441.65039 C 126.58234 440.90039 119.78289 439.90945 112.96289 439.18945 C 107.86289 438.64945 103.51218 440.97961 99.242188 443.34961 A 4.07 4.07 0 0 1 93.441406 442.10938 C 92.801406 441.19937 93.442422 440.46047 93.732422 439.73047 C 98.532422 427.95047 103.27313 416.15969 108.20312 404.42969 C 113.60313 391.56969 119.20188 378.76922 124.67188 365.94922 C 124.96188 365.25922 125.31328 364.60094 125.86328 363.46094 z "
     id="path15" />
  <path
     style="fill:#2e2e2e"
     inkscape:connector-curvature="0"
     id="path17"
     d="m 110.42231,207.7 c -0.32,5.21 0.28,9.89 0.58,14.58 0.37,5.93 1,11.85 1,17.79 0,18.86 0,37.71 0,56.57 a 44.75,44.75 0 0 1 -0.81,8.51 14.69,14.69 0 0 1 -5,8.39 c -0.61,0.54 -1,0.71 -1.74,0.14 a 10.51,10.51 0 0 1 -4.41,-7.54 59.59,59.59 0 0 1 0.11,-10.4 c 0.46,-6.81 -0.15,-13.57 -0.709996,-20.33 -0.21,-2.57 0.1,-5.08 0.09,-7.62 q 0,-49.62 0,-99.23 c 0,-3.12 0,-3.14 3.099996,-3.12 1.93,0 4.17,-0.54 5.71,0.24 1.72,0.88 1,3.49 1.56,5.29 2.37,7.59 7,13.68 12.46,19.26 8.51,8.76 17.92,16.56 26.74,25 0.09,0.09 0.26,0.08 0.43,0.13 0.54,-0.49 0.31,-1.15 0.32,-1.72 q 0.19,-15.18 0.33,-30.35 a 97.33,97.33 0 0 1 1,-11.76 c 0.41,-3.11 2,-5.61 4,-8 0.56,-0.68 0.93,-0.77 1.63,-0.11 3.18,3 5.06,6.38 5,11 q -0.24,30.11 -0.16,60.22 c 0.06,19 0.89,37.95 1.88,56.9 0.34,6.44 -1.06,12.57 -2.21,18.78 -0.17,0.9 -0.69,1.12 -1.46,1.12 -2.63,0 -5.26,0 -7.88,0 -1.35,0 -1.46,-0.76 -1.45,-1.8 0.07,-7.73 0,-15.46 0.23,-23.18 0.4,-12.21 0.51,-24.41 -1.15,-36.52 a 28,28 0 0 0 -9.17,-17.27 c -9.56,-8.54 -20.08,-16.04 -30.02,-24.97 z"
     class="cls-2" />
</svg>
