<?xml version="1.0" encoding="UTF-8" standalone="no"?>
<svg
   xmlns:dc="http://purl.org/dc/elements/1.1/"
   xmlns:cc="http://creativecommons.org/ns#"
   xmlns:rdf="http://www.w3.org/1999/02/22-rdf-syntax-ns#"
   xmlns:svg="http://www.w3.org/2000/svg"
   xmlns="http://www.w3.org/2000/svg"
   xmlns:sodipodi="http://sodipodi.sourceforge.net/DTD/sodipodi-0.dtd"
   xmlns:inkscape="http://www.inkscape.org/namespaces/inkscape"
   id="Layer_1"
   data-name="Layer 1"
   width="419.84836"
   height="167.4183"
   viewBox="0 0 419.84835 167.4183"
   version="1.1"
   sodipodi:docname="ona-only-bw.svg"
   inkscape:version="0.92.3 (2405546, 2018-03-11)">
  <metadata
     id="metadata63">
    <rdf:RDF>
      <cc:Work
         rdf:about="">
        <dc:format>image/svg+xml</dc:format>
        <dc:type
           rdf:resource="http://purl.org/dc/dcmitype/StillImage" />
        <dc:title>ona-logo-bw</dc:title>
      </cc:Work>
    </rdf:RDF>
  </metadata>
  <sodipodi:namedview
     pagecolor="#ffffff"
     bordercolor="#666666"
     borderopacity="1"
     objecttolerance="10"
     gridtolerance="10"
     guidetolerance="10"
     inkscape:pageopacity="0"
     inkscape:pageshadow="2"
     inkscape:window-width="1221"
     inkscape:window-height="632"
     id="namedview61"
     showgrid="false"
     inkscape:zoom="0.70977729"
     inkscape:cx="209.92335"
     inkscape:cy="7.4183079"
     inkscape:window-x="0"
     inkscape:window-y="32"
     inkscape:window-maximized="0"
     inkscape:current-layer="Layer_1"
     fit-margin-top="0"
     fit-margin-left="0"
     fit-margin-right="0"
     fit-margin-bottom="0" />
  <defs
     id="defs4">
    <style
       id="style2">
      .cls-1 {
        opacity: 0.2;
      }

      .cls-2 {
        opacity: 0.81;
      }
    </style>
  </defs>
  <title
     id="title6">ona-logo-bw</title>
  <g
     id="Ona"
     class="cls-2"
     style="opacity:0.81000001"
     transform="translate(-0.00165417)">
    <path
       d="m 2.22,55.65 c 2.83,-18 15.44,-32 28.49,-44.58 a 41.9,41.9 0 0 1 9.81,-6.84 c 8.62,-4.48 16.86,-4.3 25,2.32 C 63.84,7.09 62.4,7.68 60.91,8 47.2,11 37.35,19.11 30.12,30.85 19.55,48 17.42,66.64 20,86.19 c 2,15 5.93,29.33 13.43,42.58 10.3,18.17 25.08,28.35 46.7,27.49 22.38,-0.88 40,-9.82 49.28,-30.64 11.64,-26.06 13,-53.31 4.07,-80.44 C 127.66,27.48 115.41,16.49 95.8,15.1 85.4,14.36 78.11,18.49 73.15,27.34 c -3,5.37 -5.91,10.8 -8.94,16.17 -0.79,1.41 -1.23,3.12 -2.81,4 -4.21,-2.62 -5.32,-6.48 -4.91,-11.17 A 27.17,27.17 0 0 1 65.73,18 c 19.34,-17.49 52.51,-22.79 72.77,6.38 17.84,25.69 23.39,54.38 15.71,84.72 -7.68,30.34 -36.35,53.54 -67.85,56.9 A 90.32,90.32 0 0 1 59.49,165.37 C 42.25,162.1 28.83,153 18.8,138.72 9.62,125.72 4.31,111.09 1.73,95.43 -0.15,84 -1.15,77 2.22,55.65 Z"
       id="path13"
       inkscape:connector-curvature="0" />
    <path
       d="m 234.4,63 c -0.34,-16.46 -0.47,-31.92 0.56,-47.37 0.28,-4.13 0.6,-8.31 3.27,-11.86 1.24,-1.66 2.06,-1.65 3.44,-0.15 2.66,2.92 3.4,6.34 3.38,10.14 -0.13,24.65 -0.5,49.31 -0.2,74 0.22,18.81 1.25,37.62 2.08,56.42 0.26,5.9 -0.8,11.58 -1.65,17.35 -0.83,5.56 -4.81,3.27 -7.67,3.57 -3.66,0.38 -2.68,-2.49 -2.71,-4.48 -0.34,-20.3 1.68,-40.63 -0.78,-60.92 -1.14,-9.38 -5,-17.32 -12.11,-23.37 -11.15,-9.5 -22.61,-18.64 -34.84,-28.68 0.36,7 0.54,13.39 1,19.73 2.23,28.29 1,56.62 1,84.94 0,4.34 -0.48,8.68 -3.12,12.42 -2.64,3.74 -4.3,3.52 -6.44,-0.39 -1.32,-2.41 -1.43,-5.12 -1.44,-7.78 Q 178,82.77 177.79,9 c 0,-2 -1.25,-5 2.82,-5 3.12,0 5.8,-0.35 6.31,4.13 0.55,4.86 3.11,9.13 5.92,13.08 11.41,16.08 27.75,27.12 41.56,41.79 z"
       id="path15"
       inkscape:connector-curvature="0" />
    <path
       d="m 412.05,118.88 a 67.45,67.45 0 0 1 -14.57,9.52 c -7.66,3.77 -7.73,3.68 -11.47,-3.82 C 377.69,107.89 372.15,90.09 365.12,72.88 356.21,51.06 345,30.22 338.21,7.52 337.14,3.9 335.36,1.34 331.85,0 h -3 a 3.75,3.75 0 0 1 -0.17,0.47 c -3.9,7 -9.79,13.49 -4.18,22.29 1.25,2 -0.35,3.88 -1.09,5.66 -13.11,31.48 -26.36,62.92 -39.33,94.46 -1.62,3.94 -3.68,5.43 -7.75,5 a 13.44,13.44 0 0 0 -7.35,1 c -2,0.94 -5.52,0.29 -4.79,4.32 0.7,3.84 2.83,5.82 6.85,5.75 2.14,0 4.12,-1.47 6.33,-0.7 0.05,0.37 0.21,0.72 0.11,1 -2.78,6.77 -5.38,13.64 -8.47,20.26 -1.7,3.64 -0.1,5.21 2.73,6.58 3,1.46 4.87,0.59 6.16,-2.62 2.49,-6.17 5.48,-12.14 7.92,-18.33 1.47,-3.71 2.74,-4.79 5.87,-1.39 2.9,3.16 6.26,5.9 9.56,9 a 20.32,20.32 0 0 0 1.19,-2 c 4.39,-10.26 7.75,-12.48 18.69,-11.64 16.44,1.28 32.86,2.8 49.31,4.08 a 6.28,6.28 0 0 1 5.75,3.91 54.49,54.49 0 0 1 4.88,14.64 c 0.48,2.8 1.69,4 4.69,3.56 3.28,-0.42 6.65,-0.71 9.91,0.35 2.11,0.69 2.63,-0.2 2.59,-2.17 a 44.74,44.74 0 0 0 -2.42,-13.22 c -2.87,-8.55 -2.86,-8.57 5.73,-12.14 7.1,-2.95 14.33,-5.7 18.28,-13 v -5 c -3.33,-5.12 -3.32,-5.12 -7.8,-1.24 z m -47.66,14 c -13.36,0.16 -26.59,-1.52 -39.74,-3.49 -8.57,-1.28 -16.6,-1.06 -23.83,4.15 -2.72,2 -4.14,0 -6,-1.24 -1.86,-1.24 -1.94,-2.61 -1.14,-4.61 Q 311,84.14 330,41.26 c 0.1,-0.24 0.47,-0.36 1.14,-0.84 1.28,2.73 2.53,5.37 3.76,8 12.17,26.26 22,53.47 32.76,80.32 1.62,4.13 -0.48,4.09 -3.27,4.13 z"
       id="path17"
       inkscape:connector-curvature="0" />
  </g>
</svg>
