<?xml version="1.0" encoding="UTF-8" standalone="no"?>
<svg
   xmlns:dc="http://purl.org/dc/elements/1.1/"
   xmlns:cc="http://creativecommons.org/ns#"
   xmlns:rdf="http://www.w3.org/1999/02/22-rdf-syntax-ns#"
   xmlns:svg="http://www.w3.org/2000/svg"
   xmlns="http://www.w3.org/2000/svg"
   xmlns:sodipodi="http://sodipodi.sourceforge.net/DTD/sodipodi-0.dtd"
   xmlns:inkscape="http://www.inkscape.org/namespaces/inkscape"
   id="Layer_1"
   data-name="Layer 1"
   width="143.62686"
   height="475.63092"
   viewBox="0 0 143.62686 475.63093"
   version="1.1"
   sodipodi:docname="ona-vertical.svg"
   inkscape:version="0.92.3 (2405546, 2018-03-11)">
  <metadata
     id="metadata75">
    <rdf:RDF>
      <cc:Work
         rdf:about="">
        <dc:format>image/svg+xml</dc:format>
        <dc:type
           rdf:resource="http://purl.org/dc/dcmitype/StillImage" />
        <dc:title>Ona Logo Vertical</dc:title>
      </cc:Work>
    </rdf:RDF>
  </metadata>
  <sodipodi:namedview
     pagecolor="#ffffff"
     bordercolor="#666666"
     borderopacity="1"
     objecttolerance="10"
     gridtolerance="10"
     guidetolerance="10"
     inkscape:pageopacity="0"
     inkscape:pageshadow="2"
     inkscape:window-width="1517"
     inkscape:window-height="790"
     id="namedview73"
     showgrid="false"
     inkscape:zoom="0.92374092"
     inkscape:cx="-163.82501"
     inkscape:cy="240.6353"
     inkscape:window-x="0"
     inkscape:window-y="32"
     inkscape:window-maximized="0"
     inkscape:current-layer="Layer_1"
     fit-margin-top="0"
     fit-margin-left="0"
     fit-margin-right="0"
     fit-margin-bottom="0" />
  <defs
     id="defs4">
    <style
       id="style2">
      .cls-1 {
        fill: #c3c3c3;
      }

      .cls-2 {
        fill: #2e2e2e;
      }

      .cls-3 {
        fill: #fefefe;
      }

      .cls-4 {
        fill: #010101;
      }

      .cls-5 {
        fill: #020202;
      }

      .cls-6 {
        fill: #fafafa;
      }

      .cls-7 {
        fill: #fcfcfc;
      }

      .cls-8 {
        fill: #fdfdfd;
      }

      .cls-9 {
        fill: #fbfbfb;
      }
    </style>
  </defs>
  <title
     id="title6">Ona Logo Vertical</title>
  <path
     style="fill:#666666"
     inkscape:connector-curvature="0"
     id="path13"
     d="m 51.206774,0 12.79,6.27 c -2.8,0.75 -5,1.48 -7.25,1.93 -14.06,2.81 -23.349996,11.51 -29.759996,23.87 a 66.58,66.58 0 0 0 -7.52,35 c 0.93,16.78 4.3,32.83 12.66,47.59 5.549996,9.8 12.699996,18.09 23.759996,21.61 20.36,6.47 51.879996,1.88 62.999996,-31 4.41,-13 5.55,-26.36 5.16,-39.94 -0.31,-10.75 -2.1,-21.19 -7.2,-30.81 -8,-15.13 -19.859996,-20.56 -35.739996,-19.68 -4.51,0.25 -8,2.73 -10.7,6.19 -4.1,5.18 -6.55,11.34 -9.93,17 -1.07,1.78 -2.07,3.62 -3,5.45 -0.53,1 -0.84,1.31 -2,0.43 -4.83,-3.69 -5.61,-8.56 -4.49,-14.1 a 25.18,25.18 0 0 1 7.44,-13.6 c 9.03,-8.52 19.78,-13.4 32.25,-13.67 14.949996,-0.35 26.429996,6.45 34.999996,18.3 9.26,12.7 14.46,27.1 16.45,42.7 1.6,12.55 1.54,25 -2.67,37.07 -8.72,25 -26.48,40.42 -51.749996,47.2 a 71.57,71.57 0 0 1 -40.45,-0.51 C 30.986778,142.22 19.856778,131.11 11.926778,116.44 5.2567781,104.11 1.7967781,90.84 0.62677811,76.92 c -0.63,-7.47 -1.14,-14.95 0.31,-22.38 C 3.0067781,43.97 7.9367781,34.68 13.936778,25.87 c 5.09,-7.51 10.67,-14.57 18.1,-20 3.88,-2.79 8.269996,-4.33 12.679996,-5.87 z"
     class="cls-2" />
  <path
     style="fill:#666666"
     d="m 61.230404,324.46289 a 2.31,2.31 0 0 0 -2.09375,1.55664 70.85,70.85 0 0 1 -3.64063,7.74024 9.47,9.47 0 0 0 -0.0898,10.27929 c 1.22,2.08 0.95031,3.92008 0.0703,6.08008 -11.83,28.9 -23.980389,57.66992 -36.150389,86.41992 a 2.74,2.74 0 0 1 -3.119141,2 24.71,24.71 0 0 0 -11.0898439,1.75 c -3.57,1.51 -3.600312,1.34047 -2.570312,5.23047 1.03,3.89 3.070156,5.3307 7.160156,5.2207 1.3799999,-0.04 2.6499219,-0.79953 4.1699219,-0.51953 -0.16,0.49 -0.270469,0.93961 -0.480469,1.34961 -2.52,6.05 -5.0295309,12.10016 -7.5195309,18.16016 -0.26,0.64 -0.900859,1.29961 -0.13086,2.09961 1.71,1.71 3.44,3.35898 5.9999999,3.70898 2.09,0.29 3.461641,7.8e-4 4.431641,-2.44922 2.51,-6.3 5.429375,-12.42992 8.109375,-18.66992 0.62,-1.44 1.059688,-1.56945 2.179688,-0.43945 2.07,2.06 4.269687,4 6.429687,6 1.33,1.25 3,3.70898 4,3.45898 1.639997,-0.43 1.659847,-3.10961 2.339847,-4.84961 2.19,-5.61 6.38086,-8.41 12.38086,-8 6.16,0.46 12.30898,0.95094 18.45898,1.46094 9.62,0.8 19.22984,1.63992 28.83984,2.41992 a 3.83,3.83 0 0 1 3.361326,2.31836 51.58,51.58 0 0 1 5,15.32032 c 0.32,1.82 0.98961,2.4307 2.84961,2.2207 4.06,-0.45 8.14063,-1.0893 12.14063,0.4707 2,0.79 2.24023,-0.0305 2.24023,-1.81055 0.05,-6.46 -1.65133,-12.51085 -4.11133,-18.38085 -0.6,-1.44 -0.44937,-2.14899 1.14063,-2.70899 2.61,-0.92 5.13945,-2.08969 7.68945,-3.17969 3.99,-1.7 7.91055,-3.52109 11.06055,-6.62109 3.95,-3.93 4.3789,-8.34969 1.3789,-12.92969 -1.96,-2.96 -1.93945,-2.9393 -4.43945,-0.5293 a 58.17,58.17 0 0 1 -19,12.17969 c -1.55,0.62 -2.43,0.34024 -3.25,-1.25976 -3.21,-6.25 -6.00016,-12.68969 -8.66015,-19.17969 -5.79,-14.04 -10.479066,-28.49031 -16.789066,-42.32031 -7.07,-15.49 -14.39078,-30.90125 -19.30078,-47.28125 -1.42,-4.73 -3.75937,-6.29883 -8.60937,-6.29883 a 2.31,2.31 0 0 0 -0.38672,-0.0176 z m 1.77734,38.99805 c 3.14,7 6.14,13.61828 9,20.23828 8.2,18.84 15.19977,38.08086 22.75977,57.13086 0.63,1.59 0.45914,2.11969 -1.38086,2.17969 -7.66,0.28 -15.24985,-0.51938 -22.83985,-1.35938 -6.82,-0.75 -13.61945,-1.74094 -20.43945,-2.46094 -5.1,-0.54 -9.45071,1.79016 -13.720702,4.16016 a 4.07,4.07 0 0 1 -5.800782,-1.24023 c -0.64,-0.91001 0.001,-1.64891 0.291016,-2.37891 4.8,-11.78 9.540708,-23.57078 14.470698,-35.30078 5.40001,-12.86 10.99876,-25.66047 16.46876,-38.48047 0.29,-0.69 0.6414,-1.34828 1.1914,-2.48828 z"
     id="path15"
     inkscape:connector-curvature="0" />
  <path
     style="fill:#666666"
     inkscape:connector-curvature="0"
     id="path17"
     d="m 47.566774,207.7 c -0.32,5.21 0.28,9.89 0.58,14.58 0.37,5.93 1,11.85 1,17.79 0,18.86 0,37.71 0,56.57 a 44.75,44.75 0 0 1 -0.81,8.51 14.69,14.69 0 0 1 -5,8.39 c -0.61,0.54 -1,0.71 -1.74,0.14 a 10.51,10.51 0 0 1 -4.41,-7.54 59.59,59.59 0 0 1 0.11,-10.4 c 0.46,-6.81 -0.15,-13.57 -0.709996,-20.33 -0.21,-2.57 0.1,-5.08 0.09,-7.62 q 0,-49.62 0,-99.23 c 0,-3.12 0,-3.14 3.099996,-3.12 1.93,0 4.17,-0.54 5.71,0.24 1.72,0.88 1,3.49 1.56,5.29 2.37,7.59 7,13.68 12.46,19.26 8.51,8.76 17.92,16.56 26.74,25 0.09,0.09 0.26,0.08 0.43,0.13 0.54,-0.49 0.31,-1.15 0.32,-1.72 q 0.19,-15.18 0.33,-30.35 a 97.33,97.33 0 0 1 1,-11.76 c 0.41,-3.11 2,-5.61 4,-8 0.56,-0.68 0.93,-0.77 1.63,-0.11 3.18,3 5.06,6.38 5,11 q -0.24,30.11 -0.16,60.22 c 0.06,19 0.89,37.95 1.879996,56.9 0.34,6.44 -1.059996,12.57 -2.209996,18.78 -0.17,0.9 -0.69,1.12 -1.46,1.12 -2.63,0 -5.26,0 -7.88,0 -1.35,0 -1.46,-0.76 -1.45,-1.8 0.07,-7.73 0,-15.46 0.23,-23.18 0.4,-12.21 0.51,-24.41 -1.15,-36.52 a 28,28 0 0 0 -9.17,-17.27 c -9.56,-8.54 -20.08,-16.04 -30.02,-24.97 z"
     class="cls-2" />
</svg>
