<?xml version="1.0" encoding="UTF-8" standalone="no"?>
<!-- Created with Inkscape (http://www.inkscape.org/) -->

<svg
   xmlns:dc="http://purl.org/dc/elements/1.1/"
   xmlns:cc="http://creativecommons.org/ns#"
   xmlns:rdf="http://www.w3.org/1999/02/22-rdf-syntax-ns#"
   xmlns:svg="http://www.w3.org/2000/svg"
   xmlns="http://www.w3.org/2000/svg"
   xmlns:sodipodi="http://sodipodi.sourceforge.net/DTD/sodipodi-0.dtd"
   xmlns:inkscape="http://www.inkscape.org/namespaces/inkscape"
   version="1.1"
   id="svg2"
   xml:space="preserve"
   width="559.79865"
   height="426.66666"
   viewBox="0 0 559.79865 426.66666"
   sodipodi:docname="ona-logo-color.svg"
   inkscape:version="0.92.3 (2405546, 2018-03-11)"
   inkscape:export-filename="/media/sf_phi/_PROJECTS/ona-templates/images/ona-logo-color-1200.png"
   inkscape:export-xdpi="205.78999"
   inkscape:export-ydpi="205.78999"><metadata
     id="metadata8"><rdf:RDF><cc:Work
         rdf:about=""><dc:format>image/svg+xml</dc:format><dc:type
           rdf:resource="http://purl.org/dc/dcmitype/StillImage" /><dc:title></dc:title></cc:Work></rdf:RDF></metadata><defs
     id="defs6"><clipPath
       clipPathUnits="userSpaceOnUse"
       id="clipPath18"><path
         d="M 16.994,9.778 H 398.538 V 138.854 H 16.994 Z"
         id="path16"
         inkscape:connector-curvature="0" /></clipPath><clipPath
       clipPathUnits="userSpaceOnUse"
       id="clipPath34"><path
         d="M 0,152.722 H 419.848 V 320.001 H 0 Z"
         id="path32"
         inkscape:connector-curvature="0" /></clipPath><clipPath
       clipPathUnits="userSpaceOnUse"
       id="clipPath54"><path
         d="M 18.299,39.189 H 396.33 v 78.628 H 18.299 Z"
         id="path52"
         inkscape:connector-curvature="0" /></clipPath><clipPath
       clipPathUnits="userSpaceOnUse"
       id="clipPath102"><path
         d="M 185.635,0 H 395.559 V 52.802 H 185.635 Z"
         id="path100"
         inkscape:connector-curvature="0" /></clipPath></defs><sodipodi:namedview
     pagecolor="#ffffff"
     bordercolor="#666666"
     borderopacity="1"
     objecttolerance="10"
     gridtolerance="10"
     guidetolerance="10"
     inkscape:pageopacity="0"
     inkscape:pageshadow="2"
     inkscape:window-width="1802"
     inkscape:window-height="872"
     id="namedview4"
     showgrid="false"
     inkscape:zoom="0.55312501"
     inkscape:cx="279.89932"
     inkscape:cy="213.33333"
     inkscape:window-x="0"
     inkscape:window-y="32"
     inkscape:window-maximized="0"
     inkscape:current-layer="g10" /><g
     id="g10"
     inkscape:groupmode="layer"
     inkscape:label="ona-logo-color"
     transform="matrix(1.3333333,0,0,-1.3333333,0,426.66667)"><g
       id="g12"><g
         id="g14"
         clip-path="url(#clipPath18)"><g
           id="g20"
           transform="translate(372.6035,127.2734)"><path
             d="m 0,0 c -13.779,-0.979 -25.901,1.051 -38.048,0.584 -19.478,-0.748 -38.974,-1.41 -58.435,-0.65 -24.318,0.95 -48.648,0.098 -72.936,1.03 -34.982,1.344 -69.961,0.795 -104.933,0.506 -17.949,-0.148 -35.886,-2.157 -53.883,-1.688 -7.125,0.185 -14.249,0.446 -21.37,0.763 -2.383,0.107 -4.639,0.388 -4.832,3.741 -0.188,3.273 0.998,5.568 3.935,6.744 1.334,0.533 2.943,0.586 4.419,0.535 50.963,-1.787 101.943,-0.627 152.916,-0.705 16.665,-0.025 33.271,-1.417 49.934,-1.172 13.151,0.195 26.269,1.66 39.438,0.996 19.452,-0.981 38.94,-0.596 58.398,-1.733 14.134,-0.826 28.263,0.901 42.4,1.372 7.319,0.244 14.649,0.19 21.976,0.224 0.815,0.004 1.635,-0.277 2.448,-0.453 3.42,-0.741 4.501,-3.362 4.508,-6.339 C 25.941,0.583 23.094,0.142 20.877,0.08 13.388,-0.129 5.89,0 0,0"
             style="fill:#d3de94;fill-opacity:1;fill-rule:nonzero;stroke:none"
             id="path22"
             inkscape:connector-curvature="0" /></g><g
           id="g24"
           transform="translate(133.3301,9.9307)"><path
             d="m 0,0 c -26.995,-0.74 -53.922,1.403 -80.883,2.01 -9.693,0.219 -19.15,-2.509 -28.867,-1.989 -3.694,0.196 -6.682,0.524 -6.584,5.31 0.093,4.557 2.36,5.865 6.698,5.815 17.318,-0.207 34.653,0.289 51.956,-0.263 25.449,-0.811 50.893,-0.795 76.342,-0.688 5.485,0.022 10.966,0.664 16.452,0.721 5.459,0.056 6.797,-1.52 6.8,-6.852 C 41.916,-0.775 38.312,0.06 35.492,0.038 23.662,-0.052 11.831,0 0,0"
             style="fill:#d3de94;fill-opacity:1;fill-rule:nonzero;stroke:none"
             id="path26"
             inkscape:connector-curvature="0" /></g></g></g><g
       id="g28"><g
         id="g30"
         clip-path="url(#clipPath34)"><g
           id="g36"
           transform="translate(2.2153,264.3545)"><path
             d="m 0,0 c 2.833,17.963 15.449,31.996 28.5,44.571 2.888,2.783 6.238,4.985 9.807,6.841 8.622,4.485 16.86,4.307 25.025,-2.319 C 61.627,48.552 60.187,47.966 58.69,47.64 44.981,44.658 35.136,36.538 27.905,24.799 17.339,7.646 15.201,-10.992 17.823,-30.547 c 2.009,-14.986 5.927,-29.33 13.436,-42.582 10.291,-18.164 25.073,-28.343 46.695,-27.49 22.38,0.882 39.98,9.826 49.282,30.644 11.641,26.056 12.999,53.314 4.071,80.439 C 125.48,28.167 113.239,39.157 93.625,40.55 83.23,41.289 75.935,37.155 70.98,28.306 67.97,22.934 65.063,17.504 62.039,12.14 61.244,10.729 60.81,9.017 59.221,8.137 c -4.207,2.621 -5.316,6.482 -4.906,11.169 0.643,7.361 3.843,13.444 9.204,18.302 19.338,17.522 52.503,22.825 72.764,-6.345 17.842,-25.688 23.388,-54.373 15.715,-84.721 -7.644,-30.228 -36.351,-53.539 -67.854,-56.929 -8.997,-0.967 -17.94,-1.079 -26.866,0.631 -17.24,3.302 -30.661,12.411 -40.695,26.681 C 7.405,-70.023 2.093,-55.446 -0.485,-39.783 -2.367,-28.354 -3.367,-21.354 0,0"
             style="fill:#570961;fill-opacity:1;fill-rule:nonzero;stroke:none"
             id="path38"
             inkscape:connector-curvature="0" /></g><g
           id="g40"
           transform="translate(234.3945,257.0537)"><path
             d="m 0,0 c -0.339,16.452 -0.466,31.92 0.566,47.366 0.277,4.128 0.595,8.306 3.267,11.863 1.246,1.657 2.065,1.646 3.438,0.144 2.665,-2.915 3.408,-6.335 3.387,-10.138 -0.13,-24.653 -0.502,-49.312 -0.205,-73.961 0.228,-18.812 1.249,-37.616 2.078,-56.417 0.26,-5.899 -0.791,-11.582 -1.648,-17.353 -0.825,-5.554 -4.804,-3.27 -7.665,-3.568 -3.665,-0.381 -2.679,2.495 -2.711,4.48 -0.336,20.305 1.677,40.63 -0.785,60.921 -1.138,9.377 -5.004,17.314 -12.11,23.369 -11.148,9.5 -22.607,18.64 -34.84,28.676 0.362,-7.026 0.542,-13.386 1.042,-19.721 2.229,-28.296 1.03,-56.629 1.019,-84.948 -10e-4,-4.332 -0.48,-8.682 -3.117,-12.413 -2.551,-3.613 -4.301,-3.525 -6.442,0.383 -1.323,2.417 -1.423,5.122 -1.434,7.781 -0.18,49.147 -0.346,98.293 -0.444,147.439 -0.004,1.998 -1.251,4.99 2.817,5.016 3.122,0.021 5.808,0.348 6.314,-4.137 0.549,-4.851 3.112,-9.125 5.922,-13.079 C -30.143,25.656 -13.804,14.619 0,0"
             style="fill:#570961;fill-opacity:1;fill-rule:nonzero;stroke:none"
             id="path42"
             inkscape:connector-curvature="0" /></g><g
           id="g44"
           transform="translate(364.3887,187.1299)"><path
             d="m 0,0 c -13.36,-0.16 -26.59,1.52 -39.74,3.49 -8.57,1.28 -16.6,1.06 -23.83,-4.15 -2.72,-1.96 -4.14,0.02 -6.04,1.24 -1.98,1.27 -1.94,2.61 -1.14,4.61 11.59,29.03 23.71,57.83 36.34,86.42 0.1,0.24 0.47,0.36 1.14,0.84 1.28,-2.73 2.53,-5.37 3.76,-8.03 C -17.34,58.16 -7.48,30.95 3.25,4.1 4.89,0 2.79,0.04 0,0 M 47.66,13.99 C 43.24,10.15 38.33,7.05 33.09,4.47 25.43,0.7 25.36,0.79 21.62,8.29 13.3,24.98 7.76,42.78 0.73,59.99 c -8.91,21.82 -20.17,42.66 -26.91,65.36 -1.07,3.62 -2.85,6.18 -6.36,7.52 h -3 c -0.06,-0.16 -0.09,-0.32 -0.17,-0.47 -3.9,-6.95 -9.79,-13.49 -4.18,-22.29 1.25,-1.96 -0.35,-3.88 -1.09,-5.66 -13.11,-31.48 -26.36,-62.92 -39.33,-94.46 -1.62,-3.94 -3.68,-5.43 -7.75,-4.98 -2.47,0.27 -5.07,0.08 -7.35,-1.03 -1.95,-0.94 -5.52,-0.29 -4.79,-4.32 0.7,-3.84 2.83,-5.82 6.85,-5.75 2.14,0.04 4.12,1.47 6.33,0.7 0.05,-0.37 0.21,-0.72 0.11,-0.97 -2.78,-6.77 -5.38,-13.64 -8.47,-20.26 -1.7,-3.64 -0.1,-5.21 2.73,-6.58 3.03,-1.46 4.87,-0.59 6.16,2.62 2.49,6.17 5.48,12.14 7.92,18.33 1.47,3.71 2.74,4.79 5.87,1.39 2.9,-3.16 6.26,-5.9 9.56,-8.95 0.53,0.89 0.94,1.42 1.19,2.01 4.39,10.26 7.75,12.48 18.69,11.64 16.44,-1.28 32.86,-2.8 49.31,-4.08 2.86,-0.22 4.52,-1.41 5.75,-3.91 2.28,-4.68 4,-9.53 4.88,-14.64 0.48,-2.8 1.69,-3.95 4.69,-3.56 3.28,0.42 6.65,0.71 9.91,-0.35 2.11,-0.69 2.63,0.2 2.59,2.17 -0.1,4.55 -0.99,8.92 -2.42,13.22 -2.87,8.55 -2.86,8.57 5.73,12.14 7.1,2.95 14.33,5.7 18.28,13.04 v 5 c -3.33,5.03 -3.32,5.02 -7.8,1.12"
             style="fill:#570961;fill-opacity:1;fill-rule:nonzero;stroke:none"
             id="path46"
             inkscape:connector-curvature="0" /></g></g></g><g
       id="g48"><g
         id="g50"
         clip-path="url(#clipPath54)"><g
           id="g56"
           transform="translate(30.8887,66.9697)"><path
             d="m 0,0 c -0.08,7.32 -0.03,14.641 -0.03,21.971 h 0.14 c 0,7.319 0.1,14.649 -0.06,21.969 -0.06,2.92 0.93,3.84 3.79,3.46 5.04,-0.66 8.89,-3.11 10.99,-7.629 C 21.51,25.37 20.24,8.45 4.84,-2.34 3.66,-3.17 2.42,-4.649 0.91,-4.02 -0.82,-3.3 0.02,-1.38 0,0 m 55.69,-20.59 c -1.17,1.561 -1.9,-0.18 -2.71,-0.75 -3.51,-2.479 -7.42,-4.41 -11.66,-3.41 -13.68,3.25 -26.38,9.19 -39.06,15.101 -1.86,0.86 -2.18,1.979 -0.09,3.08 1.48,0.78 2.95,1.569 4.39,2.399 13.65,7.931 19.72,22.42 15.5,37.04 -3,10.391 -10.42,16.651 -21.09,17.811 -6.09,0.66 -7.58,-0.47 -7.6,-6.54 -0.06,-13.5 0.04,-27 0.12,-40.5 0.04,-5.33 1.95,-11.34 -6.08,-14.09 6.39,0.87 6.95,-2.271 6.58,-6.551 -0.2,-2.3 0.04,-4.659 0.25,-6.979 0.16,-1.741 -0.05,-3.861 2.78,-3.8 2.91,0.059 3.06,2.12 3.1,4.16 0.06,2.489 -0.07,4.989 -0.14,7.489 -0.09,3.011 1,3.91 3.92,2.57 4.99,-2.299 10.08,-4.379 15.12,-6.57 6.72,-2.93 13.36,-6.109 20.68,-7.25 5.52,-0.859 10.58,0.441 15.07,3.75 0.96,0.7 1.72,1.981 0.92,3.04"
             style="fill:#000000;fill-opacity:1;fill-rule:nonzero;stroke:none"
             id="path58"
             inkscape:connector-curvature="0" /></g><g
           id="g60"
           transform="translate(244.1982,82.0898)"><path
             d="m 0,0 c -3.18,1.56 -0.569,5.44 -1.279,7.59 0,1.1 -0.141,1.65 0.029,2.09 0.921,2.44 -2.1,6.4 2.671,7.33 C 7.53,18.19 12.73,16.04 14.24,11.88 15.69,7.85 14,3.33 10.08,1.2 6.9,-0.521 3.101,-1.53 0,0 m 11.24,-7.19 c -2.74,3.16 -3.05,4.55 1.481,6.18 6.16,2.2 8.889,7.45 7.79,12.92 -0.971,4.87 -5.12,7.75 -11.811,7.94 -4.319,0.12 -8.66,-0.16 -12.99,-0.01 -2.409,0.08 -3.199,-0.72 -3.109,-3.13 0.479,-12.65 0.509,-25.32 -0.01,-37.97 -0.111,-2.67 1.149,-2.9 3.279,-2.95 2.34,-0.05 3.25,0.59 3.11,3.1 -0.28,4.82 -0.28,9.66 -0.309,14.49 0,1.07 -0.551,2.54 0.92,3.06 1.34,0.47 2.119,-0.72 2.819,-1.6 3.96,-4.94 8.221,-9.68 11.66,-14.96 2.66,-4.1 5.79,-4.72 10.401,-3.55 -4.521,5.68 -8.681,11.25 -13.231,16.48"
             style="fill:#000000;fill-opacity:1;fill-rule:nonzero;stroke:none"
             id="path62"
             inkscape:connector-curvature="0" /></g><g
           id="g64"
           transform="translate(355.791,56.1123)"><path
             d="m 0,0 c -11.301,12.239 -21.638,23.432 -32.972,35.706 0,-9.555 -0.007,-17.762 0.006,-25.968 0.003,-1.999 0.059,-3.999 0.118,-5.998 0.048,-1.59 -0.89,-1.942 -2.23,-1.896 -1.22,0.042 -2.382,0.037 -2.258,1.808 0.998,14.215 1.241,28.459 0.989,44.217 11.438,-12.245 21.815,-23.354 32.935,-35.26 0,9.652 0.01,18.191 -0.01,26.73 -0.003,1.331 -0.099,2.666 -0.224,3.992 -0.158,1.679 0.434,2.383 2.235,2.38 C 0.396,45.708 0.947,44.994 0.785,43.317 -0.562,29.396 0.097,15.421 0,0"
             style="fill:#000000;fill-opacity:1;fill-rule:nonzero;stroke:none"
             id="path66"
             inkscape:connector-curvature="0" /></g><g
           id="g68"
           transform="translate(227.9365,85.959)"><path
             d="m 0,0 c 0,-3.989 0.156,-7.985 -0.029,-11.966 -0.511,-10.929 -7.273,-17.048 -18.597,-17.009 -12.035,0.041 -17.77,5.253 -18.001,17.04 -0.163,8.302 0.703,16.621 -0.089,24.921 -0.257,2.689 1.036,2.886 3.226,2.907 2.341,0.023 3.276,-0.478 3.028,-3.05 -0.799,-8.288 -0.917,-16.619 -0.455,-24.922 0.559,-10.021 6.68,-15.004 16.173,-13.597 5.89,0.873 9.508,4.396 10.684,10.876 1.62,8.909 0.579,17.917 0.723,26.882 0.026,1.587 -1.137,3.86 2.179,3.787 C 2.125,15.796 0.915,13.493 0.897,11.962 0.851,7.973 0.588,3.986 0.411,-0.001 0.274,-0.001 0.138,0 0,0"
             style="fill:#000000;fill-opacity:1;fill-rule:nonzero;stroke:none"
             id="path70"
             inkscape:connector-curvature="0" /></g><g
           id="g72"
           transform="translate(291.2686,77.9307)"><path
             d="m 0,0 c -6.43,0.029 -6.43,0.029 -3.88,5.96 1.25,2.88 2.52,5.76 4.14,9.479 C 1.771,12.05 2.99,9.359 4.17,6.67 7.11,-0.03 7.1,-0.03 0,0 m 1.75,26.3 c -7.2,-16.09 -13.78,-30.821 -20.45,-45.74 3.13,-1.071 4.92,-0.691 5.84,2.589 1.03,3.661 2.68,7.14 3.9,10.75 0.75,2.22 2.07,2.97 4.41,3.08 C 7.9,-2.4 7.9,-2.341 12.47,-14 c 0.12,-0.311 0.26,-0.62 0.32,-0.95 0.85,-4.92 3.91,-5.971 8.54,-4.62 C 15,-4.73 8.67,10.1 1.75,26.3"
             style="fill:#000000;fill-opacity:1;fill-rule:nonzero;stroke:none"
             id="path74"
             inkscape:connector-curvature="0" /></g><g
           id="g76"
           transform="translate(170.5684,77.8799)"><path
             d="m 0,0 c -10.36,-1 -10.72,-0.6 -6.689,8.83 0.829,1.92 1.71,3.83 2.989,6.72 C -1.57,10.67 0.021,6.85 1.76,3.1 2.72,1.05 2.53,0.25 0,0 M 15.66,-15.63 C 10.88,-4.13 6.01,7.32 1.061,18.74 0.16,20.81 -0.13,23.26 -2.37,25 -5.06,21.68 -6.1,17.64 -7.78,13.95 c -4.69,-10.26 -9.3,-20.56 -13.85,-30.89 -0.37,-0.81 -1.97,-2.15 -0.099,-2.8 1.209,-0.42 3.089,-0.95 3.969,0.83 0.74,1.48 1.14,3.12 1.75,4.66 5.571,14.02 1.45,10.72 16.14,11.28 3.02,0.12 4.5,-1.05 5.42,-3.8 1.221,-3.62 2.971,-7.05 4.15,-10.67 1.25,-3.87 4.47,-2.91 6.52,-2.18 2.15,0.76 -0.04,2.74 -0.56,3.99"
             style="fill:#000000;fill-opacity:1;fill-rule:nonzero;stroke:none"
             id="path78"
             inkscape:connector-curvature="0" /></g><g
           id="g80"
           transform="translate(62.0708,79.9092)"><path
             d="m 0,0 c 0,5.823 0.309,11.671 -0.107,17.465 -0.285,3.954 1.017,4.848 4.696,4.6 4.806,-0.323 9.651,-0.008 14.476,-0.1 1.427,-0.028 3.621,0.962 3.699,-1.865 0.079,-2.9 -2.095,-1.961 -3.551,-1.92 -3.327,0.092 -6.652,0.303 -9.971,0.57 C 7.171,18.914 6.051,18.178 6.076,16.013 6.078,15.847 6.066,15.679 6.047,15.514 4.602,2.818 4.619,2.823 17.511,2.964 19.087,2.98 21.608,4.073 21.37,0.838 21.162,-1.979 18.895,-0.747 17.509,-0.733 5.947,-0.62 5.948,-0.586 5.954,-12.354 c 0.004,-6.544 0.004,-6.582 6.376,-6.5 2.827,0.037 5.658,0.183 8.475,0.421 1.465,0.124 2.221,-0.266 2.206,-1.81 -0.013,-1.286 -0.751,-1.714 -1.905,-1.715 -6.327,-0.002 -12.654,0.014 -18.981,-0.019 -2.713,-0.012 -2.161,1.914 -2.163,3.506 -0.011,6.158 -0.004,12.315 -0.004,18.472 z"
             style="fill:#000000;fill-opacity:1;fill-rule:nonzero;stroke:none"
             id="path82"
             inkscape:connector-curvature="0" /></g><g
           id="g84"
           transform="translate(112.4312,94.4805)"><path
             d="m 0,0 c -0.522,0.168 -0.758,0.17 -0.816,0.272 -2.153,3.793 -5.054,6.275 -9.725,5.051 -3.405,-0.891 -5.462,-3.295 -5.743,-6.781 -0.413,-5.116 3.238,-7.271 7.18,-9.049 1.82,-0.819 3.729,-1.449 5.522,-2.321 4.295,-2.089 7.393,-4.998 7.277,-10.315 -0.118,-5.453 -2.219,-9.703 -7.062,-12.327 -4.293,-2.325 -8.926,-2.636 -13.592,-1.433 -5.659,1.459 -6.092,2.478 -3.839,8.861 1.469,-1.65 2.569,-3.339 4.076,-4.492 4.514,-3.457 10.843,-2.49 13.673,1.89 3.129,4.847 1.523,9.716 -4.293,12.682 -2.071,1.057 -4.304,1.789 -6.404,2.793 -6.275,3.002 -8.781,7.436 -7.756,13.562 0.923,5.52 5.619,9.407 12.176,9.927 1.645,0.131 3.351,0.083 4.972,-0.206 C 1.535,7.064 2.135,5.914 0,0"
             style="fill:#000000;fill-opacity:1;fill-rule:nonzero;stroke:none"
             id="path86"
             inkscape:connector-curvature="0" /></g><g
           id="g88"
           transform="translate(383.043,77.8926)"><path
             d="m 0,0 c 0,-5.489 -0.114,-10.982 0.051,-16.467 0.074,-2.496 -0.509,-3.546 -3.253,-3.571 -2.964,-0.028 -3.103,1.455 -3.073,3.726 0.136,10.646 0.029,21.296 0.296,31.938 0.093,3.678 -0.94,5.254 -4.754,4.711 -2.13,-0.304 -4.318,-0.199 -6.479,-0.295 -1.387,-0.063 -2.134,0.402 -2.135,1.968 0,1.552 0.76,2.051 2.131,2.051 9.483,0.004 18.966,0.002 28.446,0.027 1.434,0.003 2.027,-0.5 2.055,-2.052 C 13.322,20.053 12.277,19.93 10.77,20.021 8.278,20.173 5.776,20.144 3.292,20.345 0.748,20.55 -0.278,19.596 -0.217,16.968 -0.083,11.314 -0.177,5.655 -0.177,0 Z"
             style="fill:#000000;fill-opacity:1;fill-rule:nonzero;stroke:none"
             id="path90"
             inkscape:connector-curvature="0" /></g><g
           id="g92"
           transform="translate(138.4624,77.4521)"><path
             d="m 0,0 c 0,-4.824 0.05,-9.649 -0.022,-14.474 -0.033,-2.177 1.543,-5.068 -2.978,-5.142 -4.801,-0.078 -3.388,3.029 -3.244,5.368 0.613,9.982 0.215,19.972 0.382,29.954 0.071,4.258 -1.473,5.677 -5.536,5.051 -1.963,-0.303 -3.988,-0.187 -5.982,-0.289 -1.387,-0.072 -2.129,0.366 -2.151,1.937 -0.021,1.534 0.635,2.095 2.054,2.094 9.488,-0.006 18.977,-0.019 28.464,0.013 1.692,0.006 2.346,-0.655 2.281,-2.381 -0.068,-1.806 -1.226,-1.656 -2.399,-1.652 -0.332,0.002 -0.665,0.047 -0.997,0.05 C -0.38,20.622 -0.382,20.622 -0.403,10.487 -0.41,6.991 -0.404,3.495 -0.404,0 Z"
             style="fill:#000000;fill-opacity:1;fill-rule:nonzero;stroke:none"
             id="path94"
             inkscape:connector-curvature="0" /></g></g></g><g
       id="g96"><g
         id="g98"
         clip-path="url(#clipPath102)"><g
           id="g104"
           transform="translate(221.8486)"><path
             d="M 0,0 C 1.778,2.288 2.241,4.75 2.204,7.74 2.037,21.372 2.263,35.008 2.34,48.643 2.351,50.658 2.057,53.019 5.115,52.786 8.116,52.557 6.904,50.015 6.903,48.495 6.896,34.857 6.888,21.216 6.552,7.585 6.447,3.35 7.894,1.98 11.979,2.296 16.212,2.623 20.549,1.661 24.49,4.034 25.512,0.915 22.307,1.589 22,0 H 17 C 16.184,0.762 15.167,0.414 14.228,0.5 11.824,0.252 9.348,1.058 7,0 Z"
             style="fill:#000000;fill-opacity:1;fill-rule:nonzero;stroke:none"
             id="path106"
             inkscape:connector-curvature="0" /></g><g
           id="g108"
           transform="translate(228.8486)"><path
             d="M 0,0 C 2.479,1.897 5.289,0.698 7.955,0.847 8.684,0.603 8.699,0.32 8,0 Z"
             style="fill:#000000;fill-opacity:1;fill-rule:nonzero;stroke:none"
             id="path110"
             inkscape:connector-curvature="0" /></g><g
           id="g112"
           transform="translate(236.8486)"><path
             d="M 0,0 C -0.005,0.283 -0.021,0.565 -0.045,0.847 0.8,0.958 1.54,0.816 2,0 Z"
             style="fill:#000000;fill-opacity:1;fill-rule:nonzero;stroke:none"
             id="path114"
             inkscape:connector-curvature="0" /></g><g
           id="g116"
           transform="translate(255.8086,10.1602)"><path
             d="m 0,0 c -7.56,0.18 -12.12,5.7 -12.07,14.63 0.05,8.98 4.63,14.24 12.38,14.23 C 8,28.85 12.66,23.48 12.72,14.57 12.77,5.61 7.73,-0.17 0,0 M 0.33,30.94 C -10.25,30.97 -16.9,24.66 -16.94,14.56 -16.97,4.43 -10.38,-1.92 0.2,-1.96 10.82,-1.99 17.43,4.29 17.47,14.44 17.52,24.55 10.91,30.91 0.33,30.94"
             style="fill:#000000;fill-opacity:1;fill-rule:nonzero;stroke:none"
             id="path118"
             inkscape:connector-curvature="0" /></g><g
           id="g120"
           transform="translate(201.7085,12.7305)"><path
             d="m 0,0 c -0.56,-1.671 -3.26,-2 -6.59,-1.961 -1.91,0.051 -4.16,1.57 -5.04,4.591 -0.95,3.239 0.54,5.729 3,7.819 1.8,1.53 2.85,0.34 3.42,-1.05 C -3.81,6.01 1.56,4.59 0,0 m -3.43,25.359 c 2.19,-0.019 3.46,-1.5 3.3,-3.49 -0.21,-2.699 -1.44,-5.76 -4.22,-5.88 -1.98,-0.08 -2.4,3.08 -2.79,5.101 0.07,2.519 0.98,4.279 3.71,4.269 M 8.61,6.949 c 1.2,1.04 4.28,3.391 1.59,5.111 C 8.53,13.119 8.2,9.34 6.77,8.17 5.65,7.26 5.42,4.109 3.47,5.619 c -2.43,1.87 -4.52,4.551 -5.9,7.311 -1.13,2.259 2.1,2.87 3.16,4.399 1.73,2.511 2.96,5.12 0.8,7.74 -2.15,2.611 -5.15,2.851 -8.19,1.481 -3.79,-1.721 -5.27,-5.571 -3.25,-9.62 1.3,-2.601 1.61,-3.96 -1.3,-5.83 -4.61,-2.96 -5.86,-7.35 -4.1,-11.111 1.78,-3.8 6.57,-5.479 11.72,-3.939 3.37,1 6.51,4.639 10.17,0.3 0.53,-0.621 2.45,-0.08 4.27,-0.08 C 8.9,-0.07 3.35,2.359 8.61,6.949"
             style="fill:#000000;fill-opacity:1;fill-rule:nonzero;stroke:none"
             id="path122"
             inkscape:connector-curvature="0" /></g><g
           id="g124"
           transform="translate(336.7734,8.6172)"><path
             d="m 0,0 c -7.19,7.77 -14.382,15.54 -22.657,24.483 0,-6.996 -0.009,-12.636 0.006,-18.277 0.003,-1.331 0.084,-2.661 0.122,-3.992 0.036,-1.226 -0.548,-1.809 -1.792,-1.803 -1.397,0.007 -1.588,0.884 -1.518,1.976 0.204,3.155 0.554,6.308 0.599,9.466 0.094,6.629 0.028,13.26 1.103,20.506 7.166,-7.665 14.331,-15.331 22.502,-24.073 0,6.494 0.008,11.815 -0.005,17.136 -0.004,1.331 -0.072,2.662 -0.106,3.993 -0.027,1.023 -0.043,2.054 1.375,2.131 1.712,0.092 1.738,-1.039 1.735,-2.307 C 1.342,19.625 1.353,10.012 1.353,0.398 0.9,0.266 0.45,0.133 0,0"
             style="fill:#000000;fill-opacity:1;fill-rule:nonzero;stroke:none"
             id="path126"
             inkscape:connector-curvature="0" /></g><g
           id="g128"
           transform="translate(372.6152,16.8506)"><path
             d="m 0,0 c -0.009,-7.034 -0.016,-6.987 -7.247,-8.136 -2.982,-0.472 -5.916,-0.658 -8.916,-0.118 -8.457,1.521 -13.037,6.496 -13.469,14.778 -0.457,8.781 3.856,14.966 12.116,17.052 5.117,1.291 10.224,0.993 15.197,-0.875 1.478,-0.555 2.76,-1.105 1.777,-3.199 -1.379,-2.937 -2.366,-0.321 -3.271,0.226 -5.855,3.537 -12.854,3.184 -17.072,-0.984 -4.327,-4.275 -5.249,-13.412 -1.929,-19.122 2.907,-5.003 9.502,-7.163 15.803,-5.575 3.714,0.935 2.248,3.756 2.874,5.942 C -3.514,2.167 -6.529,5.5 -2.415,6.48 -0.067,7.04 0.009,6.721 0,0"
             style="fill:#000000;fill-opacity:1;fill-rule:nonzero;stroke:none"
             id="path130"
             inkscape:connector-curvature="0" /></g><g
           id="g132"
           transform="translate(282.7129,29.2402)"><path
             d="m 0,0 c 0,-3.321 -0.244,-6.664 0.054,-9.958 0.516,-5.73 3.509,-8.382 9.049,-8.519 5.661,-0.139 9.308,2.581 9.841,8.327 0.535,5.771 0.207,11.619 0.388,17.429 0.043,1.369 -1.162,3.79 1.749,3.625 2.425,-0.137 1.374,-2.196 1.353,-3.505 -0.09,-5.15 -0.206,-10.302 -0.444,-15.448 -0.223,-4.896 -1.712,-9.273 -6.514,-11.491 -5.145,-2.376 -10.439,-2.152 -15.33,0.654 -3.71,2.128 -4.469,6.085 -4.566,9.984 -0.142,5.807 0.099,11.624 -0.013,17.433 -0.039,2.062 0.76,2.547 2.616,2.565 C 0.263,11.116 0.11,9.865 0.09,8.471 0.048,5.648 0.077,2.824 0.077,0.001 0.052,0 0.025,0 0,0"
             style="fill:#000000;fill-opacity:1;fill-rule:nonzero;stroke:none"
             id="path134"
             inkscape:connector-curvature="0" /></g><g
           id="g136"
           transform="translate(378.9619,25.0967)"><path
             d="m 0,0 c -0.005,3.985 0.143,7.978 -0.059,11.953 -0.129,2.547 0.492,3.613 3.26,3.424 3.469,-0.237 6.967,-0.032 10.452,-0.047 1.107,-0.004 2.68,0.358 2.722,-1.298 0.056,-2.144 -1.731,-1.456 -2.955,-1.437 -1.161,0.017 -2.351,-0.019 -3.476,0.218 C 5.372,13.773 4.516,11.626 4.314,7.453 4.077,2.526 5.603,0.754 10.412,1.717 11.533,1.941 12.729,1.83 13.891,1.801 14.923,1.775 15.305,1.133 15.215,0.156 15.14,-0.646 14.62,-0.96 13.894,-1.004 13.397,-1.033 12.897,-0.992 12.401,-1.012 4.294,-1.341 4.496,-1.345 4.377,-9.678 c -0.053,-3.712 1.358,-4.683 4.662,-4.231 1.64,0.225 3.31,0.24 4.966,0.352 1.122,0.076 2.599,0.532 2.592,-1.274 -0.007,-1.826 -1.634,-1.123 -2.655,-1.308 -0.161,-0.029 -0.339,-0.036 -0.497,0 C 9.021,-15.131 2.807,-18.945 0.402,-14.244 -1.551,-10.427 0.005,-4.815 0,0"
             style="fill:#000000;fill-opacity:1;fill-rule:nonzero;stroke:none"
             id="path138"
             inkscape:connector-curvature="0" /></g></g></g></g></svg>