<svg id="Layer_1" data-name="Layer 1" xmlns="http://www.w3.org/2000/svg" width="419.85" height="320" viewBox="0 0 419.85 320">
  <defs>
    <style>
      .cls-1 {
        opacity: 0.2;
      }

      .cls-2 {
        opacity: 0.81;
      }
    </style>
  </defs>
  <title>ona-logo-bw</title>
  <g id="Bar" class="cls-1">
    <path d="M372.6,192.73c-13.78,1-25.9-1-38-.59-19.48.75-39,1.41-58.44.65-24.32-.95-48.65-.1-72.94-1-35-1.34-70-.79-104.93-.5-18,.14-35.88,2.15-53.88,1.68q-10.69-.27-21.37-.76c-2.39-.11-4.64-.39-4.83-3.74s1-5.57,3.93-6.74a11.1,11.1,0,0,1,4.42-.54c51,1.79,101.94.63,152.92.71,16.66,0,33.27,1.41,49.93,1.17,13.15-.2,26.27-1.66,39.44-1,19.45,1,38.94.6,58.4,1.74,14.13.82,28.26-.91,42.4-1.38,7.32-.24,14.65-.19,22-.22a12.27,12.27,0,0,1,2.45.45c3.42.74,4.5,3.36,4.51,6.34,0,3.17-2.84,3.62-5.06,3.68C386,192.86,378.49,192.73,372.6,192.73Z"/>
    <path d="M133.33,310.07c-27,.74-53.92-1.4-80.88-2-9.7-.22-19.15,2.51-28.87,2-3.69-.2-6.68-.53-6.58-5.31.09-4.56,2.36-5.87,6.69-5.82,17.32.21,34.66-.29,52,.27,25.45.81,50.89.79,76.34.68,5.49,0,11-.66,16.45-.72s6.8,1.52,6.8,6.86c0,4.83-3.6,4-6.42,4C157,310.12,145.16,310.07,133.33,310.07Z"/>
  </g>
  <g id="Ona" class="cls-2">
    <path d="M2.22,55.65c2.83-18,15.44-32,28.49-44.58a41.9,41.9,0,0,1,9.81-6.84c8.62-4.48,16.86-4.3,25,2.32C63.84,7.09,62.4,7.68,60.91,8,47.2,11,37.35,19.11,30.12,30.85,19.55,48,17.42,66.64,20,86.19c2,15,5.93,29.33,13.43,42.58,10.3,18.17,25.08,28.35,46.7,27.49,22.38-.88,40-9.82,49.28-30.64,11.64-26.06,13-53.31,4.07-80.44-5.82-17.7-18.07-28.69-37.68-30.08-10.4-.74-17.69,3.39-22.65,12.24-3,5.37-5.91,10.8-8.94,16.17-.79,1.41-1.23,3.12-2.81,4-4.21-2.62-5.32-6.48-4.91-11.17A27.17,27.17,0,0,1,65.73,18C85.07.51,118.24-4.79,138.5,24.38c17.84,25.69,23.39,54.38,15.71,84.72S117.86,162.64,86.36,166a90.32,90.32,0,0,1-26.87-.63C42.25,162.1,28.83,153,18.8,138.72c-9.18-13-14.49-27.63-17.07-43.29C-.15,84-1.15,77,2.22,55.65Z"/>
    <path d="M234.4,63c-.34-16.46-.47-31.92.56-47.37.28-4.13.6-8.31,3.27-11.86,1.24-1.66,2.06-1.65,3.44-.15,2.66,2.92,3.4,6.34,3.38,10.14-.13,24.65-.5,49.31-.2,74,.22,18.81,1.25,37.62,2.08,56.42.26,5.9-.8,11.58-1.65,17.35-.83,5.56-4.81,3.27-7.67,3.57-3.66.38-2.68-2.49-2.71-4.48-.34-20.3,1.68-40.63-.78-60.92-1.14-9.38-5-17.32-12.11-23.37-11.15-9.5-22.61-18.64-34.84-28.68.36,7,.54,13.39,1,19.73,2.23,28.29,1,56.62,1,84.94,0,4.34-.48,8.68-3.12,12.42s-4.3,3.52-6.44-.39c-1.32-2.41-1.43-5.12-1.44-7.78Q178,82.77,177.79,9c0-2-1.25-5,2.82-5,3.12,0,5.8-.35,6.31,4.13.55,4.86,3.11,9.13,5.92,13.08C204.25,37.29,220.59,48.33,234.4,63Z"/>
    <path d="M412.05,118.88a67.45,67.45,0,0,1-14.57,9.52c-7.66,3.77-7.73,3.68-11.47-3.82-8.32-16.69-13.86-34.49-20.89-51.7C356.21,51.06,345,30.22,338.21,7.52c-1.07-3.62-2.85-6.18-6.36-7.52h-3a3.75,3.75,0,0,1-.17.47c-3.9,7-9.79,13.49-4.18,22.29,1.25,2-.35,3.88-1.09,5.66-13.11,31.48-26.36,62.92-39.33,94.46-1.62,3.94-3.68,5.43-7.75,5a13.44,13.44,0,0,0-7.35,1c-2,.94-5.52.29-4.79,4.32.7,3.84,2.83,5.82,6.85,5.75,2.14,0,4.12-1.47,6.33-.7.05.37.21.72.11,1-2.78,6.77-5.38,13.64-8.47,20.26-1.7,3.64-.1,5.21,2.73,6.58,3,1.46,4.87.59,6.16-2.62,2.49-6.17,5.48-12.14,7.92-18.33,1.47-3.71,2.74-4.79,5.87-1.39,2.9,3.16,6.26,5.9,9.56,9a20.32,20.32,0,0,0,1.19-2c4.39-10.26,7.75-12.48,18.69-11.64,16.44,1.28,32.86,2.8,49.31,4.08a6.28,6.28,0,0,1,5.75,3.91,54.49,54.49,0,0,1,4.88,14.64c.48,2.8,1.69,4,4.69,3.56,3.28-.42,6.65-.71,9.91.35,2.11.69,2.63-.2,2.59-2.17a44.74,44.74,0,0,0-2.42-13.22c-2.87-8.55-2.86-8.57,5.73-12.14,7.1-2.95,14.33-5.7,18.28-13v-5C416.52,115,416.53,115,412.05,118.88Zm-47.66,14c-13.36.16-26.59-1.52-39.74-3.49-8.57-1.28-16.6-1.06-23.83,4.15-2.72,2-4.14,0-6-1.24s-1.94-2.61-1.14-4.61Q311,84.14,330,41.26c.1-.24.47-.36,1.14-.84,1.28,2.73,2.53,5.37,3.76,8,12.17,26.26,22,53.47,32.76,80.32C369.28,132.87,367.18,132.83,364.39,132.87Z"/>
  </g>
  <g id="Restaurant" class="cls-2">
    <path d="M86.58,273.62c-1.17-1.56-1.9.18-2.71.75-3.51,2.48-7.42,4.41-11.66,3.41-13.68-3.25-26.38-9.19-39.06-15.1-1.86-.86-2.18-2-.09-3.08,1.48-.78,2.95-1.57,4.39-2.4,13.65-7.93,19.72-22.42,15.5-37-3-10.39-10.42-16.65-21.09-17.81-6.09-.66-7.58.47-7.6,6.54-.06,13.5,0,27,.12,40.5,0,5.33,1.95,11.34-6.08,14.09,6.39-.87,7,2.27,6.58,6.55a39.83,39.83,0,0,0,.25,7c.16,1.74-.05,3.86,2.78,3.8s3.06-2.12,3.1-4.16c.06-2.49-.07-5-.14-7.49-.09-3,1-3.91,3.92-2.57,5,2.3,10.08,4.38,15.12,6.57,6.72,2.93,13.36,6.11,20.68,7.25a19.52,19.52,0,0,0,15.07-3.75C86.62,276,87.38,274.68,86.58,273.62ZM30.89,253c-.08-7.32,0-14.64,0-22H31c0-7.32.1-14.65-.06-22-.06-2.92.93-3.84,3.79-3.46,5,.66,8.89,3.11,11,7.63,6.68,14.4,5.41,31.32-10,42.11-1.18.83-2.42,2.31-3.93,1.68C30.07,256.33,30.91,254.41,30.89,253Z"/>
    <path d="M255.44,245.1c-2.74-3.16-3.05-4.55,1.48-6.18,6.16-2.2,8.89-7.45,7.79-12.92-1-4.87-5.12-7.75-11.81-7.94-4.32-.12-8.66.16-13,0-2.41-.08-3.2.72-3.11,3.13.48,12.65.51,25.32,0,38-.11,2.67,1.15,2.9,3.28,2.95,2.34.05,3.25-.59,3.11-3.1-.28-4.82-.28-9.66-.31-14.49,0-1.07-.55-2.54.92-3.06s2.12.72,2.82,1.6c4,4.94,8.22,9.68,11.66,15,2.66,4.1,5.79,4.72,10.4,3.55C264.15,255.9,260,250.33,255.44,245.1Zm-11.24-7.19c-3.18-1.56-.57-5.44-1.28-7.59a7.7,7.7,0,0,1,0-2.09c.92-2.44-2.1-6.4,2.67-7.33,6.11-1.18,11.31,1,12.82,5.13a8.76,8.76,0,0,1-4.16,10.68C251.1,238.43,247.3,239.44,244.2,237.91Z"/>
    <path d="M355.79,263.89l-33-35.71c0,9.56,0,17.76,0,26,0,2,.05,4,.11,6,.05,1.59-.89,1.94-2.23,1.89s-2.38,0-2.25-1.8c1-14.22,1.24-28.46,1-44.22l32.94,35.26c0-9.65,0-18.19,0-26.73,0-1.33-.1-2.67-.22-4-.16-1.68.43-2.39,2.23-2.38s2.36.71,2.2,2.39C355.23,234.49,355.89,248.47,355.79,263.89Z"/>
    <path d="M227.94,234c0,4,.15,8,0,12-.51,10.93-7.27,17-18.6,17-12,0-17.77-5.26-18-17-.16-8.31.7-16.62-.09-24.93-.26-2.68,1-2.88,3.23-2.9,2.34,0,3.27.48,3,3a165.89,165.89,0,0,0-.45,24.92c.56,10,6.68,15,16.17,13.6,5.89-.88,9.51-4.4,10.69-10.88,1.62-8.91.57-17.92.72-26.88,0-1.59-1.14-3.86,2.18-3.79s2.07,2.38,2.05,3.91c0,4-.31,8-.48,12Z"/>
    <path d="M293,215.77c-7.2,16.09-13.78,30.82-20.45,45.74,3.13,1.07,4.92.69,5.84-2.59,1-3.66,2.68-7.14,3.9-10.75.75-2.22,2.07-3,4.41-3.08,12.45-.62,12.45-.68,17,11a5.31,5.31,0,0,1,.32.95c.85,4.92,3.91,6,8.54,4.62C306.27,246.8,299.94,232,293,215.77Zm-1.75,26.3c-6.43,0-6.43,0-3.88-6,1.25-2.88,2.52-5.76,4.14-9.48,1.51,3.39,2.73,6.08,3.91,8.77C298.38,242.1,298.37,242.1,291.27,242.07Z"/>
    <path d="M186.23,257.75q-7.17-17.25-14.6-34.37c-.9-2.07-1.19-4.52-3.43-6.26-2.69,3.32-3.73,7.36-5.41,11q-7,15.39-13.85,30.89c-.37.81-2,2.15-.1,2.8,1.21.42,3.09.95,4-.83.74-1.48,1.14-3.12,1.75-4.66,5.57-14,1.45-10.72,16.14-11.28,3-.12,4.5,1,5.42,3.8,1.22,3.62,3,7.05,4.15,10.67,1.25,3.87,4.47,2.91,6.52,2.18S186.75,259,186.23,257.75Zm-15.66-15.63c-10.36,1-10.72.6-6.69-8.83.83-1.92,1.71-3.83,3-6.72,2.13,4.88,3.72,8.7,5.46,12.45C173.29,241.07,173.1,241.87,170.57,242.12Z"/>
    <path d="M62.07,240.09c0-5.82.31-11.67-.11-17.46-.28-4,1-4.85,4.7-4.6,4.81.32,9.65,0,14.48.1,1.42,0,3.62-1,3.69,1.86s-2.09,2-3.55,1.92c-3.32-.09-6.65-.3-10-.57-2.07-.16-3.19.57-3.16,2.74a4.32,4.32,0,0,1,0,.5c-1.45,12.69-1.43,12.69,11.46,12.55,1.58,0,4.1-1.11,3.86,2.12-.21,2.82-2.47,1.59-3.86,1.57C68,240.71,68,240.68,68,252.44c0,6.55,0,6.59,6.38,6.5,2.83,0,5.66-.18,8.48-.42,1.46-.12,2.22.27,2.2,1.81,0,1.29-.75,1.72-1.9,1.72-6.33,0-12.66,0-19,0-2.72,0-2.16-1.92-2.17-3.51q0-9.24,0-18.47Z"/>
    <path d="M112.43,225.52c-.52-.17-.76-.17-.82-.27-2.15-3.8-5-6.28-9.72-5.05A7.24,7.24,0,0,0,96.15,227c-.42,5.11,3.23,7.27,7.18,9.05,1.82.82,3.73,1.45,5.52,2.32,4.29,2.09,7.39,5,7.28,10.31-.12,5.46-2.22,9.71-7.07,12.33a18.2,18.2,0,0,1-13.59,1.43c-5.66-1.46-6.09-2.48-3.84-8.86,1.47,1.65,2.57,3.34,4.08,4.49,4.51,3.46,10.84,2.49,13.67-1.89,3.13-4.84,1.52-9.71-4.29-12.68-2.07-1-4.31-1.79-6.41-2.79-6.27-3-8.78-7.44-7.75-13.56.92-5.52,5.62-9.41,12.18-9.93a20.17,20.17,0,0,1,5,.2C114,218.45,114.57,219.61,112.43,225.52Z"/>
    <path d="M383,242.11c0,5.49-.11,11,0,16.46.08,2.5-.51,3.55-3.25,3.58-3,0-3.1-1.46-3.07-3.73.13-10.65,0-21.3.29-31.94.1-3.68-.94-5.25-4.75-4.71-2.13.3-4.32.2-6.48.3-1.39.06-2.13-.41-2.13-2s.76-2,2.13-2l28.44,0c1.44,0,2,.5,2.06,2,0,2-1,2.11-2.52,2-2.49-.16-5-.13-7.48-.33s-3.57.75-3.5,3.38c.13,5.65,0,11.31,0,17Z"/>
    <path d="M138.46,242.55c0,4.82,0,9.65,0,14.47,0,2.18,1.54,5.07-3,5.14-4.8.08-3.39-3-3.24-5.36.61-10,.21-20,.38-30,.07-4.26-1.47-5.67-5.54-5.05a59.27,59.27,0,0,1-6,.29c-1.38.07-2.13-.37-2.15-1.94s.64-2.09,2.06-2.09c9.48,0,19,0,28.46,0,1.69,0,2.35.65,2.28,2.38s-1.23,1.65-2.4,1.65c-.33,0-.66,0-1,0-10.25-.09-10.25-.09-10.27,10,0,3.5,0,7,0,10.49Z"/>
  </g>
  <g id="_Lounge" data-name="&amp; Lounge" class="cls-2">
    <path d="M221.85,320c1.78-2.29,2.24-4.75,2.2-7.74-.16-13.63.06-27.27.14-40.9,0-2-.28-4.38,2.77-4.15s1.79,2.78,1.79,4.3c0,13.63,0,27.27-.35,40.91-.1,4.23,1.34,5.6,5.43,5.28s8.57.64,12.51-1.73c1,3.12-2.18,2.44-2.49,4h-5c-.82-.76-1.83-.41-2.77-.5-2.41.25-4.88-.56-7.23.5Z"/>
    <path d="M228.85,320c2.48-1.9,5.29-.7,8-.85.73.25.75.53,0,.85Z"/>
    <path d="M236.85,320c0-.28,0-.57,0-.85a1.82,1.82,0,0,1,2,.85Z"/>
    <path d="M256.14,278.9c-10.58,0-17.23,6.28-17.27,16.38s6.56,16.48,17.14,16.52,17.23-6.25,17.27-16.4S266.72,278.93,256.14,278.9Zm-.33,30.94c-7.56-.18-12.12-5.7-12.07-14.63S248.37,281,256.12,281s12.35,5.38,12.41,14.29S263.54,310,255.81,309.84Z"/>
    <path d="M210.32,300.32c1.2-1,4.28-3.39,1.59-5.11-1.67-1.06-2,2.72-3.43,3.89-1.12.91-1.35,4.06-3.3,2.55a21.63,21.63,0,0,1-5.9-7.31c-1.13-2.26,2.1-2.87,3.16-4.4,1.73-2.51,3-5.12.8-7.74s-5.15-2.85-8.19-1.48c-3.79,1.72-5.27,5.57-3.25,9.62,1.3,2.6,1.61,4-1.3,5.83-4.61,3-5.86,7.35-4.1,11.11s6.57,5.48,11.72,3.94c3.37-1,6.51-4.64,10.17-.3.53.62,2.45.08,4.27.08C210.61,307.34,205.06,304.91,210.32,300.32Zm-12-18.41a3.08,3.08,0,0,1,3.3,3.49c-.21,2.7-1.44,5.76-4.22,5.88-2,.08-2.4-3.08-2.79-5.1C194.64,283.66,195.55,281.9,198.28,281.91Zm3.43,25.36c-.56,1.67-3.26,2-6.59,2-1.91-.05-4.16-1.57-5-4.59-1-3.24.54-5.73,3-7.82,1.8-1.53,2.85-.34,3.42,1.05C197.9,301.26,203.27,302.68,201.71,307.27Z"/>
    <path d="M336.77,311.38,314.12,286.9c0,7,0,12.64,0,18.28,0,1.33.09,2.66.12,4s-.54,1.81-1.79,1.8-1.59-.88-1.52-2c.21-3.16.56-6.31.6-9.47.1-6.63,0-13.26,1.11-20.51l22.5,24.08c0-6.5,0-11.82,0-17.14,0-1.33-.07-2.66-.1-4,0-1,0-2.06,1.37-2.13,1.71-.1,1.74,1,1.74,2.3q0,14.43,0,28.84Z"/>
    <path d="M372.62,303.15c0,7,0,7-7.25,8.13a26.2,26.2,0,0,1-8.92.12c-8.46-1.52-13-6.49-13.47-14.78-.45-8.78,3.86-15,12.12-17.05a25,25,0,0,1,15.2.88c1.47.55,2.76,1.1,1.77,3.2-1.38,2.93-2.36.32-3.27-.23-5.85-3.53-12.85-3.18-17.07,1s-5.25,13.41-1.93,19.12c2.91,5,9.5,7.16,15.8,5.57,3.72-.93,2.25-3.75,2.88-5.94s-2.39-5.51,1.72-6.49C372.55,296.11,372.62,296.43,372.62,303.15Z"/>
    <path d="M282.71,290.76c0,3.32-.24,6.66.06,10,.51,5.73,3.5,8.38,9,8.52s9.31-2.59,9.85-8.33.2-11.62.39-17.43c0-1.37-1.17-3.79,1.74-3.62,2.43.13,1.38,2.19,1.36,3.5-.09,5.15-.21,10.3-.45,15.45-.22,4.9-1.71,9.27-6.51,11.49a16.1,16.1,0,0,1-15.33-.65c-3.71-2.13-4.47-6.09-4.57-10-.14-5.81.1-11.62,0-17.43,0-2.06.76-2.55,2.62-2.57,2.08,0,1.92,1.24,1.9,2.63,0,2.82,0,5.65,0,8.47Z"/>
    <path d="M379,294.9c0-4,.14-8-.06-11.95-.13-2.55.49-3.61,3.26-3.42,3.47.23,7,0,10.46,0,1.1,0,2.67-.35,2.72,1.3.05,2.15-1.73,1.46-3,1.44a18.19,18.19,0,0,1-3.47-.22c-4.58-1-5.43,1.19-5.63,5.36-.24,4.93,1.28,6.7,6.09,5.74a15.53,15.53,0,0,1,3.48-.09c1,0,1.42.67,1.33,1.65a1.23,1.23,0,0,1-1.32,1.16c-.5,0-1,0-1.5,0-8.1.32-7.9.33-8,8.66,0,3.71,1.36,4.68,4.66,4.23,1.64-.22,3.31-.24,5-.35,1.12-.08,2.6-.53,2.59,1.27s-1.64,1.13-2.66,1.31a1.16,1.16,0,0,1-.49,0c-4.43-1-10.64,2.81-13.05-1.89C377.41,305.33,379,299.72,379,294.9Z"/>
  </g>
</svg>
