<?xml version="1.0" encoding="UTF-8" standalone="no"?>
<!-- Created with Inkscape (http://www.inkscape.org/) -->

<svg
   xmlns:dc="http://purl.org/dc/elements/1.1/"
   xmlns:cc="http://creativecommons.org/ns#"
   xmlns:rdf="http://www.w3.org/1999/02/22-rdf-syntax-ns#"
   xmlns:svg="http://www.w3.org/2000/svg"
   xmlns="http://www.w3.org/2000/svg"
   xmlns:sodipodi="http://sodipodi.sourceforge.net/DTD/sodipodi-0.dtd"
   xmlns:inkscape="http://www.inkscape.org/namespaces/inkscape"
   version="1.1"
   id="svg2"
   xml:space="preserve"
   width="210.10268"
   height="220.74268"
   viewBox="0 0 210.10268 220.74268"
   sodipodi:docname="O-logo.svg"
   inkscape:version="0.92.3 (2405546, 2018-03-11)"><metadata
     id="metadata8"><rdf:RDF><cc:Work
         rdf:about=""><dc:format>image/svg+xml</dc:format><dc:type
           rdf:resource="http://purl.org/dc/dcmitype/StillImage" /><dc:title></dc:title></cc:Work></rdf:RDF></metadata><defs
     id="defs6"><clipPath
       clipPathUnits="userSpaceOnUse"
       id="clipPath18"><path
         d="M 0,165.557 H 157.577 V 0 H 0 Z"
         id="path16"
         inkscape:connector-curvature="0" /></clipPath></defs><sodipodi:namedview
     pagecolor="#ffffff"
     bordercolor="#666666"
     borderopacity="1"
     objecttolerance="10"
     gridtolerance="10"
     guidetolerance="10"
     inkscape:pageopacity="0"
     inkscape:pageshadow="2"
     inkscape:window-width="835"
     inkscape:window-height="480"
     id="namedview4"
     showgrid="false"
     inkscape:zoom="1.0691181"
     inkscape:cx="105.05134"
     inkscape:cy="110.37134"
     inkscape:window-x="652"
     inkscape:window-y="207"
     inkscape:window-maximized="0"
     inkscape:current-layer="g10" /><g
     id="g10"
     inkscape:groupmode="layer"
     inkscape:label="O-logo"
     transform="matrix(1.3333333,0,0,-1.3333333,0,220.74267)"><g
       id="g12"><g
         id="g14"
         clip-path="url(#clipPath18)"><g
           id="g20"
           transform="translate(2.2153,111.085)"><path
             d="m 0,0 c 2.833,17.963 15.449,31.996 28.5,44.571 2.888,2.783 6.238,4.985 9.807,6.841 8.622,4.485 16.86,4.307 25.025,-2.319 C 61.627,48.552 60.187,47.966 58.69,47.64 44.981,44.658 35.136,36.538 27.905,24.799 17.339,7.646 15.201,-10.992 17.823,-30.547 c 2.009,-14.986 5.927,-29.33 13.436,-42.582 10.291,-18.164 25.073,-28.343 46.695,-27.49 22.38,0.882 39.98,9.826 49.282,30.644 11.641,26.056 12.999,53.314 4.071,80.439 C 125.48,28.167 113.239,39.157 93.625,40.55 83.23,41.289 75.935,37.155 70.98,28.306 67.97,22.934 65.063,17.504 62.039,12.14 61.244,10.729 60.81,9.017 59.221,8.137 c -4.207,2.621 -5.316,6.482 -4.906,11.169 0.643,7.361 3.843,13.444 9.204,18.302 19.338,17.522 52.503,22.825 72.764,-6.345 17.842,-25.688 23.388,-54.373 15.715,-84.721 -7.644,-30.228 -36.351,-53.539 -67.854,-56.929 -8.997,-0.967 -17.94,-1.079 -26.866,0.631 -17.24,3.302 -30.661,12.411 -40.695,26.681 C 7.405,-70.023 2.093,-55.446 -0.485,-39.783 -2.367,-28.354 -3.367,-21.354 0,0"
             style="fill:#000000;fill-opacity:1;fill-rule:nonzero;stroke:none"
             id="path22"
             inkscape:connector-curvature="0" /></g></g></g></g></svg>