<svg id="Layer_1" data-name="Layer 1" xmlns="http://www.w3.org/2000/svg" width="421.1" height="321.1" viewBox="0 0 421.1 321.1">
  <defs>
    <style>
      .cls-1 {
        fill: #c5c5c5;
      }

      .cls-2 {
        fill: #333;
      }

      .cls-3 {
        fill: #212121;
      }

      .cls-4 {
        fill: #222;
      }

      .cls-5 {
        fill: #232323;
      }

      .cls-6 {
        fill: #fefefe;
      }

      .cls-7 {
        fill: #fdfdfd;
      }

      .cls-8 {
        fill: #fbfbfb;
      }

      .cls-9 {
        fill: #262626;
      }

      .cls-10 {
        fill: #cecece;
      }

      .cls-11 {
        fill: #a8a8a8;
      }

      .cls-12 {
        fill: #242424;
      }

      .cls-13 {
        fill: #252525;
      }

      .cls-14 {
        fill: #282828;
      }

      .cls-15 {
        fill: #f6f6f6;
      }
    </style>
  </defs>
  <title>Ona Logo Horz</title>
  <g id="Bar">
    <path class="cls-1" d="M373.75,193.73c-13.78,1-25.9-1.05-38-.58-19.48.75-39,1.41-58.44.65-24.32-1-48.65-.1-72.94-1-35-1.34-70-.79-104.93-.51-18,.15-35.89,2.16-53.89,1.69q-10.69-.28-21.37-.76c-2.38-.11-4.64-.39-4.83-3.74s1-5.57,3.93-6.74a11.14,11.14,0,0,1,4.42-.53c51,1.79,101.94.63,152.92.7,16.67,0,33.27,1.42,49.93,1.17,13.15-.19,26.27-1.66,39.44-1,19.45,1,38.94.6,58.4,1.73,14.13.83,28.26-.9,42.4-1.37,7.32-.24,14.65-.19,22-.22a11.68,11.68,0,0,1,2.45.45c3.42.74,4.5,3.36,4.51,6.34,0,3.17-2.84,3.61-5.06,3.68C387.14,193.86,379.64,193.73,373.75,193.73Z"/>
    <path class="cls-1" d="M134.48,311.07c-27,.74-53.92-1.4-80.88-2-9.69-.22-19.15,2.51-28.87,2-3.69-.2-6.68-.52-6.58-5.31.09-4.56,2.36-5.87,6.7-5.81,17.32.21,34.65-.29,52,.26,25.45.81,50.89.79,76.34.69,5.48,0,11-.66,16.45-.72s6.8,1.52,6.8,6.85c0,4.84-3.6,4-6.42,4C158.14,311.12,146.31,311.07,134.48,311.07Z"/>
  </g>
  <g id="Ona">
    <path class="cls-2" d="M1,63c1.86-1.72,1.65-4.21,2.37-6.35a109.54,109.54,0,0,1,28.5-44.57,41.68,41.68,0,0,1,9.81-6.84C50.3.75,58.53.93,66.7,7.55,65,8.09,63.55,8.68,62.06,9,48.35,12,38.5,20.11,31.27,31.85,20.71,49,18.57,67.64,21.19,87.19c2,15,5.93,29.33,13.44,42.58,10.29,18.16,25.07,28.34,46.7,27.49,22.38-.88,40-9.83,49.28-30.64,11.64-26.06,13-53.31,4.07-80.44C128.85,28.48,116.61,17.49,97,16.1c-10.4-.74-17.69,3.39-22.65,12.24-3,5.37-5.92,10.8-8.94,16.17-.8,1.41-1.23,3.12-2.82,4-4.21-2.62-5.32-6.48-4.91-11.17A27.2,27.2,0,0,1,66.89,19c19.34-17.52,52.5-22.82,72.76,6.35C157.49,51.07,163,79.76,155.36,110.1S119,163.64,87.51,167a90.37,90.37,0,0,1-26.87-.63C43.4,163.1,30,154,19.95,139.72,10.77,126.67,5.49,112.09,2.88,96.43,2.52,94.25,3.05,91.72,1,90Z"/>
    <path class="cls-2" d="M235.55,63.95c-.34-16.45-.47-31.92.57-47.37.28-4.13.59-8.31,3.27-11.86,1.25-1.66,2.06-1.65,3.44-.14,2.67,2.92,3.41,6.33,3.39,10.14-.13,24.65-.5,49.31-.21,74,.23,18.81,1.25,37.62,2.08,56.42.26,5.9-.79,11.58-1.65,17.35-.83,5.55-4.8,3.27-7.67,3.57-3.67.38-2.68-2.49-2.71-4.48-.34-20.3,1.68-40.63-.78-60.92-1.14-9.38-5-17.31-12.11-23.37C212,67.74,200.55,58.6,188.32,48.56c.36,7,.54,13.39,1,19.72,2.23,28.3,1,56.63,1,84.95,0,4.33-.48,8.68-3.12,12.41s-4.3,3.53-6.44-.38c-1.32-2.42-1.42-5.12-1.43-7.78q-.27-73.72-.45-147.44c0-2-1.25-5,2.82-5,3.12,0,5.81-.35,6.31,4.14.55,4.85,3.11,9.12,5.92,13.08C205.4,38.29,221.74,49.33,235.55,63.95Z"/>
    <path class="cls-2" d="M413.2,119.88a67.45,67.45,0,0,1-14.57,9.52c-7.66,3.78-7.73,3.68-11.47-3.82-8.32-16.69-13.86-34.49-20.89-51.7-8.91-21.81-20.17-42.66-26.91-65.36C338.29,4.9,336.51,2.34,333,1h-3a3.09,3.09,0,0,1-.17.47c-3.89,7-9.79,13.49-4.18,22.29,1.25,2-.35,3.88-1.09,5.65-13.11,31.49-26.36,62.92-39.33,94.47-1.62,3.93-3.68,5.42-7.74,5a13.46,13.46,0,0,0-7.36,1c-1.95.95-5.52.29-4.78,4.32.7,3.84,2.83,5.82,6.85,5.75,2.14,0,4.12-1.46,6.33-.69,0,.36.21.72.1,1-2.78,6.77-5.37,13.64-8.47,20.26-1.7,3.64-.1,5.21,2.74,6.58,3,1.46,4.87.59,6.16-2.62,2.48-6.17,5.48-12.14,7.92-18.33,1.47-3.71,2.74-4.8,5.87-1.39,2.9,3.16,6.26,5.9,9.56,8.95a20.32,20.32,0,0,0,1.19-2c4.39-10.25,7.75-12.48,18.69-11.63,16.44,1.27,32.86,2.8,49.3,4.07a6.28,6.28,0,0,1,5.75,3.92,54.38,54.38,0,0,1,4.88,14.63c.49,2.81,1.69,4,4.69,3.57,3.28-.42,6.66-.71,9.92.35,2.11.69,2.63-.2,2.58-2.17A44.62,44.62,0,0,0,397,151.18c-2.86-8.56-2.85-8.58,5.74-12.15,7.09-2.95,14.32-5.69,18.28-13v-5C417.67,116,417.68,116,413.2,119.88Zm-47.66,14c-13.36.17-26.59-1.52-39.74-3.48-8.57-1.28-16.6-1.07-23.83,4.14-2.72,2-4.14,0-6-1.24s-1.94-2.61-1.14-4.61q17.39-43.54,36.34-86.42c.1-.24.47-.36,1.14-.84,1.28,2.73,2.53,5.38,3.76,8,12.17,26.27,22,53.48,32.77,80.33C370.43,133.87,368.33,133.83,365.54,133.87Z"/>
  </g>
  <g id="Restaurant">
    <path class="cls-3" d="M19.45,264.48c8-2.74,6.11-8.75,6.08-14.09-.08-13.5-.19-27-.13-40.49,0-6.08,1.51-7.2,7.61-6.54,10.67,1.16,18.09,7.42,21.09,17.81,4.22,14.62-1.84,29.11-15.5,37-1.44.84-2.91,1.62-4.38,2.4-2.09,1.1-1.77,2.23.08,3.09,12.68,5.91,25.38,11.85,39.06,15.09,4.24,1,8.15-.93,11.66-3.41.81-.57,1.55-2.31,2.71-.75.8,1.07,0,2.34-.92,3a19.52,19.52,0,0,1-15.07,3.75c-7.33-1.14-14-4.33-20.68-7.25-5-2.19-10.13-4.27-15.12-6.57-2.92-1.35-4-.44-3.93,2.57.07,2.5.2,5,.14,7.49,0,2-.19,4.1-3.1,4.16s-2.62-2.06-2.78-3.8a39.76,39.76,0,0,1-.26-7C26.4,266.75,25.84,263.61,19.45,264.48Z"/>
    <path class="cls-3" d="M269.82,262.58c-4.61,1.16-7.74.55-10.4-3.55-3.44-5.28-7.7-10-11.65-15-.7-.88-1.49-2.07-2.83-1.59s-.92,2-.91,3.06c0,4.83,0,9.67.3,14.49.15,2.51-.77,3.16-3.11,3.1-2.13,0-3.39-.28-3.28-2.95.52-12.65.49-25.32,0-38-.09-2.41.7-3.21,3.11-3.13,4.32.14,8.66-.13,13,0,6.69.19,10.84,3.07,11.81,7.94,1.09,5.47-1.64,10.72-7.79,12.93-4.54,1.63-4.23,3-1.48,6.18C261.14,251.33,265.3,256.9,269.82,262.58Z"/>
    <path class="cls-3" d="M356.94,264.89l-33-35.71c0,9.55,0,17.76,0,26,0,2,.06,4,.12,6,0,1.59-.89,1.94-2.23,1.9s-2.38,0-2.26-1.81c1-14.21,1.24-28.46,1-44.22l32.93,35.26c0-9.65,0-18.19,0-26.73,0-1.33-.1-2.67-.22-4-.16-1.68.43-2.38,2.23-2.38s2.36.72,2.2,2.39C356.38,235.49,357,249.47,356.94,264.89Z"/>
    <path class="cls-4" d="M229.09,235c0,4,.16,8,0,12-.51,10.93-7.27,17-18.6,17-12,0-17.77-5.25-18-17-.16-8.3.7-16.62-.09-24.92-.26-2.69,1-2.89,3.23-2.91s3.28.48,3,3.05a164.45,164.45,0,0,0-.45,24.92c.56,10,6.68,15,16.17,13.6,5.89-.87,9.51-4.4,10.69-10.88,1.62-8.91.58-17.92.72-26.88,0-1.59-1.14-3.86,2.18-3.79s2.07,2.38,2.06,3.91c0,4-.31,8-.49,12Z"/>
    <path class="cls-3" d="M294.17,216.77l19.58,45.87c-4.63,1.35-7.69.3-8.54-4.62a5,5,0,0,0-.31-.95c-4.57-11.66-4.57-11.6-17-11-2.34.12-3.67.86-4.42,3.08-1.22,3.61-2.87,7.09-3.89,10.75-.92,3.27-2.71,3.65-5.84,2.59Z"/>
    <path class="cls-3" d="M169.35,218.12c2.24,1.74,2.53,4.19,3.43,6.26q7.42,17.13,14.6,34.37c.52,1.25,2.71,3.24.56,4s-5.27,1.69-6.52-2.18c-1.18-3.62-2.93-7.05-4.14-10.67-.93-2.76-2.4-3.92-5.42-3.81-14.69.56-10.57-2.73-16.14,11.28-.61,1.54-1,3.18-1.75,4.66-.89,1.78-2.77,1.25-4,.83-1.87-.65-.27-2,.1-2.8q6.83-15.49,13.85-30.89C165.62,225.48,166.66,221.44,169.35,218.12Z"/>
    <path class="cls-4" d="M63.22,241.09c0-5.82.31-11.67-.11-17.47-.28-4,1-4.85,4.7-4.6,4.81.32,9.65,0,14.48.1,1.43,0,3.62-1,3.7,1.87s-2.09,2-3.55,1.92c-3.33-.09-6.65-.3-10-.57-2.07-.17-3.19.57-3.17,2.74a4,4,0,0,1,0,.5c-1.45,12.7-1.43,12.69,11.46,12.55,1.58,0,4.1-1.11,3.86,2.13-.21,2.82-2.47,1.59-3.86,1.57-11.56-.11-11.56-.15-11.56,11.62,0,6.55,0,6.58,6.38,6.5,2.83,0,5.66-.18,8.47-.42,1.46-.12,2.22.27,2.21,1.81,0,1.29-.75,1.71-1.9,1.71-6.33,0-12.65,0-19,0-2.71,0-2.16-1.91-2.16-3.51q0-9.24,0-18.47Z"/>
    <path class="cls-4" d="M113.58,226.52c-.52-.17-.76-.17-.82-.27-2.15-3.79-5.05-6.27-9.72-5.05A7.24,7.24,0,0,0,97.3,228c-.41,5.12,3.24,7.27,7.18,9,1.82.82,3.73,1.45,5.52,2.32,4.29,2.09,7.39,5,7.28,10.31s-2.22,9.7-7.06,12.33a18.21,18.21,0,0,1-13.59,1.43c-5.66-1.46-6.09-2.48-3.84-8.86,1.47,1.65,2.57,3.34,4.08,4.49,4.51,3.46,10.84,2.49,13.67-1.89,3.13-4.85,1.52-9.72-4.29-12.68-2.07-1.06-4.3-1.79-6.4-2.79-6.27-3-8.78-7.44-7.76-13.56.92-5.52,5.62-9.41,12.18-9.93a19.72,19.72,0,0,1,5,.21C115.12,219.45,115.72,220.61,113.58,226.52Z"/>
    <path class="cls-5" d="M384.19,243.11c0,5.49-.11,11,.05,16.47.07,2.5-.51,3.55-3.25,3.57-3,0-3.1-1.46-3.07-3.73.14-10.65,0-21.3.3-31.94.09-3.68-.94-5.25-4.75-4.71-2.13.3-4.32.2-6.48.3-1.39.06-2.13-.4-2.13-2S365.61,219,367,219q14.22,0,28.45,0c1.43,0,2,.5,2.05,2.05,0,2-1,2.11-2.52,2-2.49-.15-5-.12-7.48-.32s-3.57.75-3.51,3.38c.13,5.65,0,11.31,0,17Z"/>
    <path class="cls-4" d="M139.61,243.55c0,4.82,0,9.65,0,14.47,0,2.18,1.54,5.07-3,5.14-4.8.08-3.39-3-3.24-5.37.61-10,.22-20,.38-30,.07-4.26-1.47-5.68-5.54-5.05a59.64,59.64,0,0,1-6,.29c-1.39.07-2.13-.37-2.15-1.94s.63-2.09,2.05-2.09c9.49,0,19,0,28.46,0,1.69,0,2.35.65,2.28,2.38s-1.23,1.66-2.4,1.65c-.33,0-.66,0-1,0-10.25-.09-10.25-.09-10.27,10,0,3.5,0,7,0,10.49Z"/>
    <path class="cls-6" d="M32.15,232.06c0-7.32.11-14.65-.05-22-.06-2.92.93-3.84,3.79-3.46,5,.66,8.89,3.11,11,7.63,6.69,14.4,5.42,31.32-10,42.11-1.19.83-2.42,2.31-3.94,1.68-1.73-.72-.89-2.64-.9-4-.08-7.32,0-14.65,0-22Z"/>
    <path class="cls-7" d="M244.07,231.32a8,8,0,0,1,0-2.08c.92-2.44-2.1-6.4,2.67-7.33,6.11-1.19,11.31,1,12.82,5.13a8.75,8.75,0,0,1-4.16,10.68c-3.18,1.73-7,2.73-10.08,1.2S244.78,233.47,244.07,231.32Z"/>
    <path class="cls-8" d="M292.68,227.63c1.52,3.4,2.73,6.08,3.91,8.77,2.94,6.69,2.93,6.7-4.17,6.67-6.43,0-6.44,0-3.88-6C289.79,234.23,291.06,231.35,292.68,227.63Z"/>
    <path class="cls-8" d="M168,227.57c2.13,4.87,3.71,8.7,5.46,12.45,1,2.05.77,2.85-1.76,3.1-10.36,1-10.72.6-6.69-8.82C165.86,232.37,166.74,230.46,168,227.57Z"/>
  </g>
  <g id="_Lounge" data-name="&amp; Lounge">
    <path class="cls-9" d="M223,321c1.78-2.29,2.24-4.75,2.2-7.74-.17-13.63.06-27.27.14-40.9,0-2-.28-4.38,2.78-4.14s1.79,2.77,1.79,4.29c0,13.64,0,27.28-.35,40.91-.1,4.24,1.34,5.6,5.43,5.29s8.57.64,12.51-1.74c1,3.12-2.18,2.44-2.49,4h-5c-.82-.76-1.83-.41-2.77-.5-2.4.25-4.88-.56-7.23.5Z"/>
    <path class="cls-10" d="M230,321c2.48-1.9,5.29-.7,8-.85q1.09.37,0,.85Z"/>
    <path class="cls-11" d="M238,321q0-.42,0-.85a1.82,1.82,0,0,1,2,.85Z"/>
    <path class="cls-5" d="M240,296.28c0-10.1,6.69-16.4,17.27-16.38s17.18,6.39,17.14,16.5-6.66,16.43-17.27,16.39S240,306.41,240,296.28Z"/>
    <path class="cls-12" d="M213.71,312c-1.82,0-3.73.54-4.26-.09-3.66-4.34-6.81-.7-10.17.31-5.15,1.54-9.94-.14-11.72-3.94s-.51-8.15,4.1-11.11c2.9-1.86,2.6-3.22,1.3-5.83-2-4-.54-7.9,3.25-9.62,3-1.38,6-1.13,8.19,1.48s.93,5.23-.8,7.74c-1.06,1.53-4.29,2.14-3.16,4.4a21.81,21.81,0,0,0,5.9,7.32c1.95,1.5,2.18-1.64,3.3-2.56,1.43-1.17,1.75-5,3.42-3.89,2.69,1.72-.39,4.07-1.58,5.11C206.21,305.91,211.76,308.34,213.71,312Z"/>
    <path class="cls-12" d="M337.92,312.38,315.27,287.9c0,7,0,12.64,0,18.28,0,1.33.08,2.66.12,4s-.55,1.81-1.79,1.8c-1.4,0-1.59-.88-1.52-2,.2-3.16.55-6.31.6-9.47.09-6.63,0-13.26,1.1-20.51l22.5,24.07c0-6.49,0-11.82,0-17.14,0-1.33-.07-2.66-.11-4,0-1,0-2.05,1.38-2.13,1.71-.09,1.74,1,1.74,2.31q0,14.42,0,28.84Z"/>
    <path class="cls-13" d="M373.77,304.15c0,7,0,7-7.25,8.13a26.35,26.35,0,0,1-8.92.12c-8.46-1.52-13-6.5-13.47-14.78-.46-8.78,3.86-15,12.12-17.05a25,25,0,0,1,15.2.87c1.48.56,2.76,1.11,1.78,3.2-1.38,2.94-2.37.32-3.27-.23-5.85-3.54-12.85-3.19-17.07,1s-5.25,13.41-1.93,19.12c2.91,5,9.5,7.16,15.8,5.58,3.71-.94,2.25-3.76,2.87-5.94s-2.39-5.51,1.72-6.49C373.7,297.11,373.78,297.43,373.77,304.15Z"/>
    <path class="cls-9" d="M283.86,291.76c0,3.32-.24,6.66.05,10,.52,5.73,3.51,8.38,9,8.52s9.31-2.58,9.84-8.33.21-11.62.39-17.43c0-1.37-1.16-3.79,1.75-3.63,2.43.14,1.37,2.2,1.35,3.5-.09,5.15-.21,10.3-.44,15.45-.22,4.9-1.71,9.27-6.52,11.49a16.1,16.1,0,0,1-15.33-.65c-3.71-2.13-4.47-6.09-4.57-10-.14-5.81.1-11.62,0-17.43,0-2.06.76-2.55,2.61-2.57,2.08,0,1.93,1.23,1.91,2.62,0,2.82,0,5.65,0,8.47Z"/>
    <path class="cls-14" d="M380.11,295.9c0-4,.14-8-.06-12-.13-2.55.49-3.61,3.26-3.42,3.47.24,7,0,10.45,0,1.11,0,2.68-.36,2.72,1.3.06,2.14-1.73,1.46-3,1.44a18.36,18.36,0,0,1-3.48-.22c-4.57-1-5.43,1.19-5.63,5.36-.24,4.93,1.29,6.7,6.1,5.74a15.94,15.94,0,0,1,3.48-.08c1,0,1.41.67,1.32,1.64a1.22,1.22,0,0,1-1.32,1.16c-.5,0-1,0-1.49,0-8.11.33-7.9.33-8,8.67-.05,3.71,1.36,4.68,4.66,4.23,1.64-.22,3.31-.24,5-.35,1.12-.08,2.6-.53,2.59,1.27s-1.63,1.12-2.66,1.31a1.27,1.27,0,0,1-.5,0c-4.42-1-10.64,2.81-13-1.9C378.56,306.33,380.12,300.72,380.11,295.9Z"/>
    <path class="cls-6" d="M244.89,296.21c0-9,4.63-14.24,12.38-14.23s12.35,5.38,12.41,14.29-5,14.75-12.71,14.57C249.4,310.66,244.84,305.14,244.89,296.21Z"/>
    <path class="cls-8" d="M196.27,310.23c-1.91,0-4.16-1.57-5-4.59-.95-3.24.54-5.73,3-7.82,1.8-1.53,2.85-.34,3.43,1,1.4,3.39,6.76,4.81,5.21,9.41C202.3,309.94,199.6,310.27,196.27,310.23Z"/>
    <path class="cls-15" d="M195.72,287.18c.06-2.52,1-4.28,3.71-4.27a3.08,3.08,0,0,1,3.3,3.48c-.21,2.7-1.45,5.77-4.22,5.88C196.53,292.36,196.11,289.2,195.72,287.18Z"/>
  </g>
</svg>
